<?xml version="1.0" encoding="utf-8"?>
<!-- Generator: Adobe Illustrator 27.5.0, SVG Export Plug-In . SVG Version: 6.00 Build 0)  -->
<svg version="1.1" xmlns="http://www.w3.org/2000/svg" xmlns:xlink="http://www.w3.org/1999/xlink" x="0px" y="0px"
	 viewBox="0 0 1040 500" style="enable-background:new 0 0 1040 500;" xml:space="preserve">
<g id="BACKGROUND">
	<rect style="fill:#E0CEAE;" width="1040" height="500"/>
</g>
<g id="OBJECTS">
	<polygon style="fill:#F1E6CF;" points="500,327.904 168.881,1.662 0,1.662 0,454.958 250,500 	"/>
	<rect x="396.5" y="317.265" style="fill:#956060;" width="247" height="69"/>
	<polygon style="fill:#FFFFFF;" points="631.457,452.949 13.255,307.609 13.255,500.55 631.457,501.265 	"/>
	<polygon style="fill:#FFFFFF;" points="618.313,44.386 688.429,475.265 1040,475.265 1035.617,0.265 	"/>
	<g>
		<path style="fill:#EDBC6A;" d="M806.062,455.156l5.446,4.849l41.024-46.07c1.326-1.489,1.194-3.77-0.295-5.096l-0.055-0.049
			c-1.489-1.326-3.771-1.194-5.096,0.295L806.062,455.156z"/>
		
			<rect x="802.952" y="457.862" transform="matrix(0.665 -0.7468 0.7468 0.665 -73.5475 756.418)" style="fill:#CBA06D;" width="7.007" height="4.671"/>
		
			<rect x="802.181" y="460.04" transform="matrix(0.665 -0.7468 0.7468 0.665 -77.1904 755.276)" style="fill:#EDBC6A;" width="2.336" height="7.292"/>
		<path style="fill:#EDBC6A;" d="M792.448,443.033l5.446,4.849l41.024-46.07c1.326-1.489,1.194-3.77-0.295-5.096l-0.055-0.049
			c-1.489-1.326-3.771-1.194-5.096,0.295L792.448,443.033z"/>
		
			<rect x="789.337" y="445.738" transform="matrix(0.665 -0.7468 0.7468 0.665 -69.0499 742.2014)" style="fill:#CBA06D;" width="7.007" height="4.671"/>
		
			<rect x="788.566" y="447.916" transform="matrix(0.665 -0.7468 0.7468 0.665 -72.694 741.056)" style="fill:#EDBC6A;" width="2.336" height="7.292"/>
		<path style="fill:#EDBC6A;" d="M778.833,430.909l5.446,4.849l41.024-46.07c1.326-1.489,1.194-3.77-0.295-5.096l-0.055-0.048
			c-1.489-1.326-3.771-1.194-5.096,0.295L778.833,430.909z"/>
		
			<rect x="775.722" y="433.614" transform="matrix(0.665 -0.7468 0.7468 0.665 -64.5558 727.9742)" style="fill:#CBA06D;" width="7.007" height="4.671"/>
		
			<rect x="774.951" y="435.793" transform="matrix(0.665 -0.7468 0.7468 0.665 -68.2008 726.8261)" style="fill:#EDBC6A;" width="2.336" height="7.292"/>
		<path style="fill:#CBA06D;" d="M849.437,494.703l14.555-16.346c-8.607,1.819-17.165-5.514-17.165-5.514l-4.85,5.446
			C841.978,478.289,850.25,485.943,849.437,494.703z"/>
		<path style="fill:#CBA06D;" d="M812.987,380.869l42.732,38.052c9.617,8.564,10.613,23.2,2.22,32.625l-0.271,0.304
			c-8.393,9.425-23.046,10.126-32.663,1.562l-42.732-38.052c-9.617-8.564-10.613-23.2-2.22-32.625l0.271-0.304
			C788.717,373.006,803.37,372.305,812.987,380.869z M828.643,449.328c7.319,6.517,18.471,5.984,24.858-1.189l0.271-0.304
			c6.387-7.173,5.629-18.312-1.69-24.829l-42.732-38.052c-7.319-6.518-18.471-5.984-24.859,1.189l-0.271,0.304
			c-6.387,7.173-5.629,18.312,1.69,24.829L828.643,449.328z"/>
		<path style="fill:#EDBC6A;" d="M731.105,379.56l110.873,98.729l4.849-5.446l-110.873-98.729
			c-2.614-2.328-26.372-26.942-19.227-61.874l-49.303,55.367C701.298,356.476,728.491,377.232,731.105,379.56z"/>
	</g>
	<g>
		<path style="fill:#EDBC6A;" d="M152.211,299.262c-1.077-11.482,10.255-23.263,4.493-42.55
			c-17.375-39.048-64.129-30.875-64.129-30.875s-47.437,1.575-56.448,43.353c-1.69,20.058,11.814,29.269,13.111,40.729
			c1.761,15.563-25.145,33.158-20.519,74.033c6.63,58.581,78.693,49.992,85.297,49.08c6.65-0.459,78.946-6.81,73.439-65.507
			C183.613,326.569,153.674,314.855,152.211,299.262z"/>
		<path style="fill:#4C3939;" d="M96.995,271.592c-14.551,1.647-25.067,14.295-23.488,28.251
			c1.58,13.956,14.656,23.934,29.208,22.287c14.551-1.647,25.067-14.295,23.487-28.251
			C124.622,279.923,111.546,269.945,96.995,271.592z"/>
		<path style="fill:#242424;" d="M97.771,278.449c-10.562,1.195-18.196,10.376-17.049,20.506
			c1.147,10.131,10.639,17.374,21.201,16.178c10.562-1.195,18.196-10.377,17.049-20.507
			C117.826,284.497,108.334,277.254,97.771,278.449z"/>
		<path style="fill:#825252;" d="M60.96,89.793c-0.914-1.635-2.857-2.538-4.803-1.996c-2.248,0.626-3.559,2.878-2.928,5.032
			c0.632,2.152,2.965,3.39,5.213,2.764c1.946-0.542,3.106-2.309,2.995-4.168l4.426-1.232l-0.478-1.63L60.96,89.793z"/>
		<path style="fill:#825252;" d="M57.785,76.658c-0.914-1.635-2.856-2.538-4.802-1.996c-2.249,0.626-3.56,2.878-2.928,5.031
			c0.63,2.152,2.964,3.39,5.213,2.764c1.946-0.542,3.105-2.308,2.995-4.168l4.426-1.233l-0.478-1.63L57.785,76.658z"/>
		<path style="fill:#825252;" d="M54.474,62.733c-0.915-1.636-2.857-2.539-4.803-1.997c-2.248,0.626-3.559,2.878-2.928,5.031
			c0.631,2.153,2.965,3.391,5.213,2.764c1.946-0.542,3.105-2.308,2.995-4.168l4.425-1.232l-0.478-1.63L54.474,62.733z"/>
		<g>
			<path style="fill:#825252;" d="M99.953,82.893c-2.018-0.094-3.709,1.22-4.235,3.019l-4.589-0.212l-0.102,1.696l4.589,0.212
				c0.308,1.837,1.833,3.3,3.85,3.393c2.332,0.108,4.33-1.62,4.464-3.86C104.066,84.903,102.285,83.001,99.953,82.893z"/>
			<path style="fill:#825252;" d="M100.343,69.341c-2.018-0.093-3.709,1.221-4.235,3.019l-4.589-0.212l-0.102,1.696l4.589,0.212
				c0.308,1.837,1.833,3.3,3.851,3.393c2.332,0.107,4.33-1.62,4.463-3.86C104.456,71.351,102.675,69.448,100.343,69.341z"/>
			<path style="fill:#825252;" d="M100.776,54.987c-2.018-0.093-3.709,1.221-4.235,3.02l-4.589-0.211l-0.101,1.696l4.589,0.212
				c0.309,1.837,1.833,3.3,3.851,3.394c2.331,0.108,4.329-1.621,4.463-3.86C104.888,56.998,103.107,55.096,100.776,54.987z"/>
		</g>
		<polygon style="fill:#825252;" points="90.855,97.4 67.957,99.77 82.73,287.772 114.893,284.444 		"/>
		
			<rect x="81.887" y="374.244" transform="matrix(0.9947 -0.1029 0.1029 0.9947 -38.54 13.1903)" style="fill:#CBA06D;" width="53.283" height="11.517"/>
		<path style="fill:#EDBC6A;" d="M82.486,43.973l-8.856-1.21l-8.421,2.998c-5.332,1.933-8.364,7.561-7.044,13.077l9.792,40.931
			L90.855,97.4l1.203-42.069C92.221,49.661,88.101,44.773,82.486,43.973z M71.92,85.639l-0.066,0.011
			c-1.807,0.296-3.513-0.929-3.809-2.737l-3.828-23.358c-0.296-1.808,0.929-3.513,2.737-3.81l0.066-0.011
			c1.808-0.296,3.513,0.929,3.81,2.737l3.827,23.358C74.953,83.637,73.728,85.343,71.92,85.639z M87.465,80.903
			c0.08,1.83-1.338,3.379-3.168,3.459l-0.067,0.003c-1.83,0.08-3.379-1.339-3.459-3.168L79.735,57.55
			c-0.08-1.83,1.338-3.379,3.168-3.459l0.067-0.003c1.83-0.08,3.379,1.338,3.459,3.168L87.465,80.903z"/>
		
			<rect x="69.329" y="104.955" transform="matrix(0.9947 -0.1029 0.1029 0.9947 -10.4425 8.8117)" style="fill:#B8B8B8;" width="21.654" height="1.256"/>
		
			<rect x="72.778" y="138.281" transform="matrix(0.9947 -0.1029 0.1029 0.9947 -13.8545 9.3438)" style="fill:#B8B8B8;" width="21.654" height="1.256"/>
		
			<rect x="76.226" y="171.607" transform="matrix(0.9947 -0.1029 0.1029 0.9947 -17.2658 9.8752)" style="fill:#B8B8B8;" width="21.655" height="1.256"/>
		
			<rect x="79.675" y="204.932" transform="matrix(0.9947 -0.1029 0.1029 0.9947 -20.6786 10.4077)" style="fill:#B8B8B8;" width="21.655" height="1.256"/>
		
			<rect x="83.123" y="238.258" transform="matrix(0.9947 -0.1029 0.1029 0.9947 -24.0907 10.9398)" style="fill:#B8B8B8;" width="21.655" height="1.256"/>
		
			<rect x="86.572" y="271.584" transform="matrix(0.9947 -0.1029 0.1029 0.9947 -27.5014 11.4712)" style="fill:#B8B8B8;" width="21.655" height="1.256"/>
		<polygon style="fill:#3F312A;" points="90.952,94.011 67.168,96.472 67.957,99.77 90.855,97.4 		"/>
		
			<rect x="83.761" y="98.84" transform="matrix(0.9947 -0.1026 0.1026 0.9947 -24.1321 9.9052)" style="fill:#FFFFFF;" width="0.872" height="281.28"/>
		
			<rect x="87.625" y="98.44" transform="matrix(0.9947 -0.1029 0.1029 0.9947 -24.131 10.3292)" style="fill:#FFFFFF;" width="0.872" height="281.28"/>
		
			<rect x="91.489" y="98.04" transform="matrix(0.9947 -0.1032 0.1032 0.9947 -24.142 10.7615)" style="fill:#FFFFFF;" width="0.872" height="281.28"/>
		
			<rect x="95.353" y="97.641" transform="matrix(0.9947 -0.1029 0.1029 0.9947 -24.0077 11.12)" style="fill:#FFFFFF;" width="0.872" height="281.28"/>
		
			<rect x="99.216" y="97.241" transform="matrix(0.9947 -0.1029 0.1029 0.9947 -23.9434 11.5139)" style="fill:#FFFFFF;" width="0.872" height="281.28"/>
		
			<rect x="103.08" y="96.841" transform="matrix(0.9947 -0.1026 0.1026 0.9947 -23.825 11.8772)" style="fill:#FFFFFF;" width="0.872" height="281.28"/>
		
			<rect x="89.124" y="378.361" transform="matrix(0.9947 -0.1029 0.1029 0.9947 -38.5556 13.1922)" style="fill:#825252;" width="38.843" height="3.629"/>
	</g>
	<g>
		<g>
			<g>
				
					<rect x="1002.095" y="97.977" transform="matrix(0.246 -0.9693 0.9693 0.246 655.311 1050.8269)" style="fill:#825252;" width="1.901" height="12.507"/>
				<path style="fill:#825252;" d="M1008.935,109.121l2.41,0.612c0.822,0.209,1.658-0.289,1.867-1.111l0.899-3.544
					c0.209-0.822-0.289-1.658-1.111-1.867l-2.41-0.612c-0.822-0.209-1.658,0.289-1.867,1.111l-0.899,3.544
					C1007.615,108.076,1008.113,108.912,1008.935,109.121z"/>
			</g>
			<g>
				
					<rect x="997.75" y="115.099" transform="matrix(0.246 -0.9693 0.9693 0.246 635.439 1059.5264)" style="fill:#825252;" width="1.901" height="12.507"/>
				<path style="fill:#825252;" d="M1004.59,126.243l2.41,0.612c0.822,0.209,1.658-0.289,1.867-1.111l0.899-3.544
					c0.209-0.822-0.289-1.658-1.111-1.867l-2.41-0.612c-0.822-0.209-1.658,0.289-1.867,1.111l-0.899,3.544
					C1003.271,125.199,1003.768,126.034,1004.59,126.243z"/>
			</g>
			<g>
				
					<rect x="984.778" y="111.657" transform="matrix(0.246 -0.9693 0.9693 0.246 628.9879 1044.3553)" style="fill:#825252;" width="1.902" height="12.507"/>
				<path style="fill:#825252;" d="M979.84,113.02l-2.411-0.612c-0.822-0.209-1.658,0.289-1.866,1.111l-0.9,3.545
					c-0.208,0.822,0.289,1.658,1.111,1.867l2.41,0.611c0.822,0.209,1.658-0.289,1.866-1.111l0.9-3.545
					C981.159,114.064,980.661,113.229,979.84,113.02z"/>
			</g>
			<g>
				
					<rect x="989.123" y="94.535" transform="matrix(0.246 -0.9693 0.9693 0.246 648.8579 1035.6553)" style="fill:#825252;" width="1.902" height="12.507"/>
				<path style="fill:#825252;" d="M984.185,95.898l-2.411-0.612c-0.822-0.209-1.658,0.289-1.866,1.111l-0.899,3.545
					c-0.208,0.822,0.289,1.658,1.111,1.867l2.411,0.611c0.822,0.209,1.658-0.288,1.866-1.111l0.9-3.545
					C985.504,96.942,985.006,96.107,984.185,95.898z"/>
			</g>
		</g>
		<path style="fill:#825252;" d="M928.943,229.439c-12.924,6.249-24.493,17.782-30.77,47.233c-0.149,0.701,0.304,1.404,1.014,1.495
			c4.395,0.564,13.704,4.365,8.224,26.582c-5.03,20.388-19.485,19.64-27.557,16.697c-0.857-0.312-11.56,15.026-22.139,56.825
			c-8.571,33.865,9.675,54.013,48.72,63.921c1.238,0.314,2.475,0.598,3.711,0.854c1.208,0.365,2.431,0.704,3.669,1.018
			c39.045,9.908,66.566,1.373,75.179-32.481c10.631-41.786,6.661-60.847,5.759-60.981c-8.498-1.262-21.561-7.497-16.261-27.816
			c5.775-22.142,15.771-21.045,19.903-19.445c0.668,0.259,1.402-0.143,1.604-0.831c8.525-28.88,3.855-44.534-4.526-56.189
			C980.501,225.499,952.033,218.275,928.943,229.439z"/>
		<polygon style="fill:#825252;" points="997.173,135.036 980.511,130.808 996.284,84.984 1005.159,87.236 		"/>
		<polygon style="fill:#3F2D1F;" points="1002.699,89.159 997.529,87.847 984.108,128.142 995.283,130.977 		"/>
		
			<rect x="992.021" y="75.193" transform="matrix(0.2459 -0.9693 0.9693 0.2459 673.9108 1033.6979)" style="fill:#825252;" width="18.615" height="17.048"/>
		
			<rect x="989.992" y="76.683" transform="matrix(0.246 -0.9693 0.9693 0.246 676.8895 1032.3555)" style="fill:#9E6A6A;" width="23.998" height="8.849"/>
		<polygon style="fill:#3E3E3D;" points="936.666,290.627 984.288,128.187 995.103,130.932 959.51,296.424 		"/>
		
			<rect x="933.58" y="322.253" transform="matrix(0.246 -0.9693 0.9693 0.246 375.6351 1164.2159)" style="fill:#CBA06D;" width="5.092" height="36.825"/>
		<path style="fill:#3E3E3D;" d="M929.099,303.885c-0.043-0.237-0.114-0.486-0.232-0.747c-0.46-0.944-1.408-1.855-2.697-2.466
			c-1.193-0.625-3.226-0.937-4.958-0.279c-1.773,0.593-3.492,1.902-4.677,3.52c-1.215,1.633-2.19,3.336-3.068,5.086
			c-1.825,3.509-3.766,7.308-5.45,11.148c-0.795,1.938-1.589,3.876-2.371,5.784c-0.787,1.855-1.506,3.89-2.155,5.658
			c-0.324,0.886-0.689,1.695-1.036,2.476c-0.385,0.809-0.653,1.339-1.225,2.157c-0.804,1.1-1.957,2.164-3.097,2.691
			c-0.283,0.102-0.606,0.278-0.841,0.316c-0.235,0.079-0.499,0.158-0.9,0.173c-0.599,0.113-1.099,0.045-1.627-0.092
			c-0.193-0.055-0.371-0.131-0.55-0.206c1.134-0.044,2.23-0.762,2.741-1.939c0.695-1.598,0.055-3.415-1.428-4.06
			c-1.483-0.645-3.249,0.127-3.944,1.725c-0.101,0.232-0.116,0.471-0.162,0.708c-0.011-0.175-0.01-0.294-0.02-0.291
			c0.015,0.007-0.111,0.238-0.186,0.748c-0.072,0.507-0.097,1.32,0.312,2.263c0.405,0.921,1.163,2.008,2.485,2.749
			c0.637,0.365,1.48,0.681,2.318,0.738c0.317,0.076,0.781,0.063,1.29,0.027c0.521-0.01,0.919-0.138,1.397-0.223
			c1.847-0.468,3.544-1.483,5.066-3.118c0.558-0.583,1.326-1.591,1.857-2.435c0.554-0.881,1.019-1.818,1.459-2.74
			c0.838-1.867,1.698-3.571,2.525-5.51c0.826-1.889,1.665-3.809,2.504-5.728c0.763-1.962,1.655-3.817,2.478-5.69
			c0.824-1.867,1.565-3.739,2.32-5.535c0.767-1.811,1.389-3.571,2.177-4.935c0.802-1.376,1.686-2.466,2.822-3.097
			c1.122-0.607,2.16-0.866,3.3-0.572c-0.805,0.281-1.519,0.874-1.901,1.753c-0.695,1.598-0.055,3.415,1.428,4.06
			c1.483,0.645,3.249-0.127,3.943-1.725C929.349,305.477,929.36,304.621,929.099,303.885z"/>
		<path style="fill:#3E3E3D;" d="M960.448,311.84c0.151-0.188,0.331-0.374,0.56-0.546c0.854-0.611,2.122-0.959,3.546-0.882
			c1.346,0.019,3.282,0.715,4.491,2.119c1.275,1.366,2.162,3.337,2.432,5.324c0.289,2.015,0.335,3.977,0.271,5.934
			c-0.069,3.955-0.174,8.22-0.524,12.398c-0.226,2.082-0.452,4.165-0.674,6.215c-0.193,2.006-0.531,4.137-0.803,6.001
			c-0.138,0.933-0.203,1.818-0.27,2.67c-0.047,0.895-0.065,1.489,0.049,2.481c0.182,1.351,0.688,2.835,1.439,3.842
			c0.2,0.225,0.4,0.533,0.588,0.678c0.169,0.182,0.363,0.377,0.709,0.581c0.473,0.385,0.944,0.563,1.474,0.695
			c0.196,0.044,0.389,0.062,0.582,0.08c-0.976-0.579-1.596-1.733-1.485-3.012c0.151-1.735,1.58-3.028,3.192-2.888
			c1.612,0.141,2.795,1.661,2.644,3.397c-0.022,0.252-0.123,0.469-0.195,0.7c0.093-0.149,0.149-0.254,0.156-0.246
			c-0.017-0.001-0.016,0.262-0.193,0.746c-0.179,0.48-0.545,1.206-1.354,1.841c-0.795,0.616-1.98,1.211-3.495,1.232
			c-0.734,0.017-1.626-0.107-2.39-0.457c-0.315-0.085-0.716-0.317-1.147-0.591c-0.454-0.257-0.742-0.559-1.122-0.862
			c-1.4-1.292-2.408-2.993-2.966-5.156c-0.212-0.779-0.407-2.03-0.471-3.026c-0.067-1.038-0.029-2.083,0.024-3.104
			c0.154-2.04,0.209-3.948,0.408-6.047c0.175-2.055,0.352-4.142,0.53-6.229c0.264-2.089,0.365-4.144,0.535-6.182
			c0.166-2.035,0.407-4.033,0.599-5.972c0.19-1.958,0.481-3.802,0.439-5.376c-0.049-1.592-0.306-2.971-1.004-4.068
			c-0.697-1.068-1.486-1.791-2.628-2.076c0.574,0.631,0.919,1.493,0.835,2.448c-0.151,1.735-1.58,3.028-3.192,2.888
			c-1.611-0.141-2.795-1.661-2.644-3.396C959.469,313.12,959.867,312.362,960.448,311.84z"/>
		<path style="fill:#C4C4C4;" d="M916.838,391.049c-0.153,0.091-0.339,0.128-0.529,0.086c-0.399-0.083-0.656-0.477-0.573-0.876
			l12.689-61.552l56.997-200.311l2.695-10.606c0.104-0.392,0.503-0.633,0.899-0.528c0.396,0.102,0.634,0.507,0.534,0.903
			l-2.702,10.626l-56.99,200.278l-12.676,61.497C917.138,390.776,917.009,390.948,916.838,391.049z"/>
		<path style="fill:#C4C4C4;" d="M931.882,394.918c-0.171,0.102-0.383,0.134-0.589,0.071c-0.391-0.118-0.615-0.531-0.497-0.922
			l17.815-60.235l44.177-203.686l2.592-10.484c0.095-0.401,0.499-0.634,0.893-0.538c0.396,0.102,0.637,0.505,0.539,0.9
			l-2.587,10.464l-44.186,203.719l-17.829,60.288C932.156,394.68,932.036,394.826,931.882,394.918z"/>
		<path style="fill:#C4C4C4;" d="M922.248,392.342c-0.157,0.094-0.348,0.13-0.542,0.083c-0.397-0.09-0.647-0.488-0.559-0.888
			l13.732-61.185l52.844-201.634l5.617-27.08c0.085-0.401,0.475-0.657,0.874-0.571c0.4,0.086,0.654,0.477,0.572,0.877l-5.625,27.119
			l-52.847,201.646l-13.723,61.163C922.542,392.076,922.415,392.242,922.248,392.342z"/>
		<path style="fill:#C4C4C4;" d="M926.518,393.44c-0.167,0.099-0.374,0.132-0.578,0.074c-0.393-0.11-0.623-0.52-0.513-0.912
			l16.726-60.417l48.406-202.632l7.849-26.675c0.115-0.395,0.53-0.616,0.917-0.495c0.39,0.115,0.614,0.528,0.499,0.92l-7.839,26.639
			l-48.403,202.62l-16.733,60.442C926.798,393.195,926.675,393.346,926.518,393.44z"/>
		<path style="fill:#3E3E3D;" d="M907.101,439.055c5.488-14.238,8.221-31.75,5.039-53.325l23.581,5.984
			c-13.084,17.447-19.031,34.143-20.996,49.276c-0.305,2.345-2.602,3.874-4.893,3.293l0,0
			C907.541,443.701,906.251,441.261,907.101,439.055z"/>
		
			<rect x="988.512" y="124.716" transform="matrix(0.246 -0.9693 0.9693 0.246 619.6177 1057.4509)" style="fill:#CBA06D;" width="1.899" height="11.528"/>
	</g>
	<polygon style="fill:#E0CEAE;" points="878.038,113.939 916.654,52.39 935.462,91.531 	"/>
	<g>
		<polygon style="fill:#3E3E3D;" points="235.231,333.984 208.142,338.69 208.142,329.203 235.231,324.497 		"/>
		<rect x="234.52" y="324.153" style="fill:#3E3E3D;" width="1.423" height="32.225"/>
		<rect x="207.43" y="329.203" style="fill:#3E3E3D;" width="1.423" height="31.844"/>
		<path style="fill:#3E3E3D;" d="M208.853,361.047c0,2.579-2.851,4.669-6.367,4.669c-3.517,0-6.367-2.091-6.367-4.669
			c0-2.579,2.851-4.669,6.367-4.669C206.003,356.378,208.853,358.468,208.853,361.047z"/>
		<path style="fill:#3E3E3D;" d="M235.943,356.378c0,2.579-2.851,4.669-6.367,4.669c-3.516,0-6.367-2.091-6.367-4.669
			s2.851-4.669,6.367-4.669C233.092,351.708,235.943,353.799,235.943,356.378z"/>
	</g>
	<g>
		<polygon style="fill:#3E3E3D;" points="902.745,169.604 875.656,174.31 875.656,164.823 902.745,160.117 		"/>
		<rect x="902.034" y="159.773" style="fill:#3E3E3D;" width="1.423" height="32.225"/>
		<rect x="874.945" y="164.823" style="fill:#3E3E3D;" width="1.423" height="31.844"/>
		<path style="fill:#3E3E3D;" d="M876.368,196.667c0,2.579-2.851,4.669-6.367,4.669c-3.516,0-6.367-2.091-6.367-4.669
			c0-2.579,2.851-4.669,6.367-4.669C873.517,191.998,876.368,194.089,876.368,196.667z"/>
		<path style="fill:#3E3E3D;" d="M903.457,191.998c0,2.579-2.851,4.669-6.367,4.669c-3.517,0-6.367-2.09-6.367-4.669
			c0-2.579,2.851-4.669,6.367-4.669C900.606,187.329,903.457,189.419,903.457,191.998z"/>
	</g>
	<g>
		
			<rect x="39.615" y="183.037" transform="matrix(0.9905 -0.1377 0.1377 0.9905 -26.7233 7.4261)" style="fill:#3E3E3D;" width="1.423" height="27.749"/>
		<path style="fill:#3E3E3D;" d="M42.941,210.555c0.355,2.554-2.181,5.017-5.664,5.502c-3.483,0.484-6.594-1.194-6.949-3.748
			c-0.355-2.554,2.181-5.017,5.664-5.501C39.475,206.323,42.586,208.001,42.941,210.555z"/>
	</g>
	<g>
		<path style="fill:#3E3E3D;" d="M1026.431,191.113c-11.95,3.61-8.468-6.656-15.117-5.669l-0.963-6.93
			C1020.002,179.316,1019.05,189.689,1026.431,191.113z"/>
		
			<rect x="1010.976" y="178.471" transform="matrix(0.9905 -0.1377 0.1377 0.9905 -16.9773 141.1114)" style="fill:#3E3E3D;" width="1.423" height="29.646"/>
		<path style="fill:#3E3E3D;" d="M1014.433,207.878c0.355,2.554-2.181,5.017-5.664,5.502c-3.483,0.484-6.594-1.194-6.949-3.748
			c-0.355-2.554,2.181-5.017,5.664-5.501C1010.967,203.646,1014.078,205.324,1014.433,207.878z"/>
	</g>
	<g>
		<path style="fill:#3E3E3D;" d="M835.677,308.26c-11.95,3.61-8.468-6.656-15.117-5.669l-0.963-6.93
			C829.248,296.463,828.295,306.836,835.677,308.26z"/>
		
			<rect x="820.221" y="295.618" transform="matrix(0.9905 -0.1377 0.1377 0.9905 -34.922 115.9753)" style="fill:#3E3E3D;" width="1.423" height="29.646"/>
		<path style="fill:#3E3E3D;" d="M823.678,325.025c0.355,2.554-2.18,5.017-5.664,5.502c-3.483,0.484-6.594-1.194-6.95-3.748
			c-0.355-2.554,2.181-5.017,5.664-5.501C820.212,320.793,823.323,322.471,823.678,325.025z"/>
	</g>
	<polygon style="fill:#DECCAC;" points="269.478,331.48 230.522,282.917 266.724,275.903 	"/>
	<polygon style="fill:#DECCAC;" points="192.41,126.706 169.717,67.207 191.002,59.259 	"/>
	<polygon style="fill:#7F8CC7;" points="266.22,76.369 773.78,63.848 765.143,161.265 278.138,156.538 	"/>
	<g>
		<defs>
			<rect id="SVGID_1_" y="1.662" width="1040" height="498.732"/>
		</defs>
		<clipPath id="SVGID_00000106140909254368627250000008985522878054946495_">
			<use xlink:href="#SVGID_1_"  style="overflow:visible;"/>
		</clipPath>
		<g style="clip-path:url(#SVGID_00000106140909254368627250000008985522878054946495_);">
			<g>
				<path style="fill:#E58D69;" d="M327.992,334.464L164.184,438.607c21.462,70.352,87.624,79.616,134.877,49.818
					c38.363-24.192,61.007-84.773,55.603-132.945L327.992,334.464z"/>
				<path style="fill:#825252;" d="M285.264,491.866l-0.028,0.06c-0.77,1.628-2.715,2.322-4.342,1.552l-104.842-49.631
					c-1.628-0.77-2.322-2.714-1.552-4.342l0.028-0.059c0.77-1.628,2.714-2.322,4.342-1.552l104.842,49.631
					C285.34,488.294,286.034,490.238,285.264,491.866z"/>
				<path style="fill:#825252;" d="M353.549,362.467l-0.025,0.035c-0.69,0.94-2.012,1.143-2.953,0.453l-26.706-19.594
					c-0.941-0.69-1.144-2.012-0.454-2.952l0.025-0.035c0.69-0.94,2.012-1.144,2.953-0.453l26.706,19.594
					C354.036,360.204,354.239,361.526,353.549,362.467z"/>
				<path style="fill:#825252;" d="M292.465,411.287c3.955,5.95,2.337,13.98-3.613,17.934c-5.95,3.954-13.979,2.337-17.934-3.613
					c-3.955-5.95-2.337-13.979,3.613-17.934C280.481,403.719,288.51,405.337,292.465,411.287z"/>
				<path style="fill:#242424;" d="M290.457,412.622c3.217,4.841,1.901,11.374-2.94,14.591c-4.841,3.217-11.374,1.901-14.591-2.94
					c-3.217-4.841-1.901-11.374,2.94-14.591C280.707,406.465,287.24,407.781,290.457,412.622z"/>
				<polygon style="fill:#FFFFFF;" points="282.153,492.133 281.74,491.909 351.935,361.323 352.348,361.547 				"/>
				<polygon style="fill:#FFFFFF;" points="267.48,485.19 267.083,484.937 348.026,358.43 348.423,358.683 				"/>
				<polygon style="fill:#FFFFFF;" points="252.807,478.246 252.43,477.965 344.119,355.536 344.496,355.818 				"/>
				<polygon style="fill:#FFFFFF;" points="238.132,471.304 237.777,470.995 340.213,352.645 340.568,352.953 				"/>
				
					<rect x="199.463" y="406.821" transform="matrix(0.7031 -0.7111 0.7111 0.7031 -206.3572 319.8762)" style="fill:#FFFFFF;" width="160.838" height="0.471"/>
				<polygon style="fill:#FFFFFF;" points="208.782,457.409 208.47,457.059 332.401,346.867 332.713,347.217 				"/>
				<polygon style="fill:#FFFFFF;" points="194.107,450.462 193.817,450.092 328.494,343.979 328.784,344.35 				"/>
				<polygon style="fill:#FFFFFF;" points="179.432,443.513 179.163,443.128 324.587,341.093 324.857,341.479 				"/>
				<path style="fill:#D7D7D7;" d="M179.95,441.945c0.759,0.36,1.083,1.268,0.722,2.027c-0.36,0.759-1.268,1.083-2.027,0.723
					c-0.759-0.36-1.083-1.268-0.722-2.027C178.283,441.908,179.191,441.585,179.95,441.945z"/>
				<path style="fill:#D7D7D7;" d="M194.614,448.902c0.759,0.36,1.083,1.268,0.722,2.027c-0.36,0.759-1.268,1.083-2.027,0.723
					c-0.759-0.36-1.083-1.268-0.722-2.027C192.947,448.866,193.855,448.542,194.614,448.902z"/>
				<path style="fill:#D7D7D7;" d="M209.278,455.86c0.759,0.36,1.083,1.268,0.722,2.027c-0.36,0.759-1.268,1.082-2.027,0.722
					c-0.759-0.36-1.083-1.268-0.722-2.027C207.611,455.823,208.519,455.499,209.278,455.86z"/>
				<path style="fill:#D7D7D7;" d="M223.942,462.817c0.759,0.36,1.083,1.268,0.722,2.027c-0.36,0.759-1.268,1.083-2.027,0.722
					c-0.759-0.36-1.083-1.268-0.722-2.027C222.275,462.78,223.183,462.457,223.942,462.817z"/>
				<path style="fill:#D7D7D7;" d="M238.606,469.774c0.759,0.36,1.083,1.268,0.722,2.027c-0.36,0.759-1.268,1.083-2.027,0.722
					c-0.759-0.36-1.083-1.268-0.722-2.027C236.939,469.737,237.847,469.414,238.606,469.774z"/>
				<path style="fill:#D7D7D7;" d="M253.27,476.732c0.759,0.36,1.083,1.268,0.722,2.027c-0.36,0.759-1.268,1.083-2.027,0.722
					c-0.759-0.36-1.083-1.268-0.722-2.027C251.604,476.695,252.511,476.371,253.27,476.732z"/>
				<path style="fill:#D7D7D7;" d="M267.935,483.689c0.759,0.36,1.083,1.268,0.722,2.027c-0.36,0.759-1.268,1.083-2.027,0.722
					c-0.759-0.36-1.083-1.268-0.722-2.027C266.268,483.652,267.175,483.329,267.935,483.689z"/>
				<path style="fill:#D7D7D7;" d="M282.599,490.646c0.759,0.36,1.083,1.268,0.722,2.027c-0.36,0.759-1.268,1.083-2.027,0.723
					c-0.759-0.36-1.083-1.268-0.722-2.027C280.932,490.609,281.839,490.286,282.599,490.646z"/>
				<path style="fill:#D7D7D7;" d="M324.992,340.918c0.203,0.149,0.246,0.434,0.098,0.637c-0.149,0.203-0.434,0.246-0.637,0.097
					c-0.203-0.149-0.246-0.434-0.097-0.637C324.504,340.813,324.789,340.769,324.992,340.918z"/>
				<path style="fill:#D7D7D7;" d="M328.909,343.797c0.203,0.149,0.246,0.434,0.097,0.637c-0.149,0.203-0.434,0.246-0.637,0.097
					c-0.203-0.149-0.246-0.434-0.098-0.637C328.421,343.691,328.706,343.648,328.909,343.797z"/>
				<path style="fill:#D7D7D7;" d="M332.826,346.675c0.203,0.149,0.246,0.434,0.097,0.637c-0.149,0.203-0.434,0.246-0.637,0.098
					c-0.203-0.149-0.246-0.434-0.097-0.637C332.338,346.57,332.623,346.526,332.826,346.675z"/>
				<path style="fill:#D7D7D7;" d="M336.743,349.554c0.203,0.149,0.246,0.434,0.097,0.637c-0.149,0.203-0.434,0.247-0.637,0.097
					c-0.203-0.149-0.246-0.434-0.097-0.637C336.255,349.448,336.54,349.405,336.743,349.554z"/>
				<path style="fill:#D7D7D7;" d="M340.66,352.432c0.203,0.149,0.246,0.434,0.097,0.637c-0.149,0.203-0.434,0.246-0.637,0.097
					c-0.203-0.149-0.246-0.434-0.097-0.637C340.172,352.327,340.457,352.283,340.66,352.432z"/>
				<path style="fill:#D7D7D7;" d="M344.577,355.31c0.203,0.149,0.246,0.434,0.097,0.637s-0.434,0.246-0.637,0.098
					c-0.203-0.149-0.246-0.434-0.097-0.637S344.374,355.161,344.577,355.31z"/>
				<path style="fill:#D7D7D7;" d="M348.494,358.189c0.203,0.149,0.246,0.434,0.097,0.637c-0.149,0.203-0.434,0.246-0.637,0.098
					c-0.203-0.149-0.246-0.434-0.097-0.637C348.006,358.084,348.292,358.04,348.494,358.189z"/>
				<path style="fill:#D7D7D7;" d="M352.411,361.067c0.203,0.149,0.246,0.434,0.098,0.637c-0.149,0.203-0.435,0.246-0.637,0.097
					c-0.203-0.149-0.246-0.434-0.097-0.637C351.923,360.962,352.209,360.918,352.411,361.067z"/>
			</g>
		</g>
		<g style="clip-path:url(#SVGID_00000106140909254368627250000008985522878054946495_);">
			<g>
				<path style="fill:#825252;" d="M374.603,422.205l-0.045,0.029c-1.228,0.8-1.575,2.445-0.775,3.672L465.555,566.5
					c0.8,1.228,2.445,1.575,3.673,0.775l0.045-0.029c1.228-0.8,1.575-2.444,0.775-3.672l-91.771-140.593
					C377.476,421.751,375.832,421.404,374.603,422.205z"/>
				<path style="fill:#825252;" d="M407.624,397.433l0.041-0.035c1.112-0.955,2.788-0.828,3.742,0.284l109.302,127.442
					c0.955,1.112,0.828,2.787-0.284,3.742l-0.041,0.035c-1.112,0.955-2.788,0.828-3.743-0.284L407.341,401.176
					C406.386,400.064,406.513,398.388,407.624,397.433z"/>
				<polygon style="fill:#EDBC6A;" points="426.652,404.328 375.572,442.648 383.244,454.809 436.181,415.097 				"/>
				<polygon style="fill:#EDBC6A;" points="439.766,419.149 386.131,459.385 393.804,471.546 449.295,429.918 				"/>
				<polygon style="fill:#EDBC6A;" points="452.881,433.97 396.691,476.122 404.363,488.283 462.41,444.738 				"/>
				<polygon style="fill:#EDBC6A;" points="465.995,448.79 407.25,492.859 414.923,505.02 475.524,459.559 				"/>
				<polygon style="fill:#EDBC6A;" points="479.109,463.611 417.81,509.596 425.482,521.758 488.638,474.38 				"/>
				<polygon style="fill:#EDBC6A;" points="492.223,478.432 428.37,526.333 436.042,538.495 501.752,489.201 				"/>
				<polygon style="fill:#EDBC6A;" points="438.929,543.07 446.602,555.232 514.867,504.021 505.338,493.253 				"/>
				<path style="fill:#825252;" d="M425.644,414.043c0.886,1.181,0.647,2.857-0.534,3.743c-1.181,0.886-2.857,0.647-3.743-0.534
					c-0.886-1.181-0.647-2.857,0.535-3.743C423.082,412.623,424.758,412.862,425.644,414.043z"/>
				<path style="fill:#825252;" d="M438.468,429.082c0.886,1.181,0.647,2.857-0.534,3.743c-1.181,0.886-2.857,0.647-3.743-0.534
					c-0.886-1.181-0.647-2.857,0.534-3.743C435.906,427.661,437.582,427.901,438.468,429.082z"/>
				<path style="fill:#825252;" d="M451.457,443.997c0.886,1.181,0.647,2.857-0.534,3.743c-1.181,0.886-2.857,0.647-3.743-0.534
					c-0.886-1.181-0.647-2.857,0.534-3.743C448.895,442.576,450.571,442.816,451.457,443.997z"/>
				<path style="fill:#825252;" d="M464.28,459.035c0.886,1.181,0.647,2.857-0.534,3.743c-1.181,0.886-2.857,0.647-3.743-0.534
					c-0.886-1.181-0.647-2.857,0.534-3.743C461.718,457.615,463.394,457.854,464.28,459.035z"/>
				<path style="fill:#825252;" d="M476.919,474.213c0.886,1.181,0.647,2.857-0.534,3.743c-1.181,0.886-2.857,0.647-3.743-0.534
					c-0.886-1.181-0.647-2.857,0.534-3.743C474.357,472.792,476.033,473.031,476.919,474.213z"/>
				<path style="fill:#825252;" d="M490.093,488.989c0.886,1.181,0.647,2.857-0.535,3.743c-1.181,0.886-2.857,0.647-3.743-0.534
					c-0.886-1.181-0.647-2.857,0.534-3.743C487.531,487.569,489.207,487.808,490.093,488.989z"/>
				<path style="fill:#825252;" d="M502.732,504.166c0.886,1.181,0.647,2.857-0.534,3.743c-1.181,0.886-2.857,0.647-3.743-0.534
					c-0.886-1.181-0.647-2.857,0.534-3.743C500.17,502.746,501.845,502.985,502.732,504.166z"/>
				<path style="fill:#825252;" d="M385.416,444.221c0.886,1.181,2.562,1.42,3.743,0.534c1.181-0.886,1.42-2.562,0.534-3.743
					c-0.886-1.181-2.562-1.42-3.743-0.534C384.769,441.365,384.53,443.04,385.416,444.221z"/>
				<path style="fill:#825252;" d="M396.266,460.741c0.886,1.181,2.562,1.42,3.743,0.534c1.181-0.886,1.42-2.562,0.534-3.743
					c-0.886-1.181-2.562-1.42-3.743-0.534C395.619,457.884,395.38,459.56,396.266,460.741z"/>
				<path style="fill:#825252;" d="M406.951,477.383c0.886,1.181,2.562,1.42,3.743,0.534c1.181-0.886,1.42-2.562,0.534-3.743
					c-0.886-1.181-2.562-1.42-3.743-0.534C406.304,474.526,406.065,476.202,406.951,477.383z"/>
				<path style="fill:#825252;" d="M417.801,493.903c0.886,1.181,2.562,1.42,3.743,0.534c1.181-0.886,1.42-2.562,0.534-3.743
					c-0.886-1.181-2.562-1.42-3.743-0.534C417.154,491.046,416.915,492.721,417.801,493.903z"/>
				<path style="fill:#825252;" d="M428.836,510.283c0.886,1.181,2.562,1.42,3.743,0.534c1.181-0.886,1.42-2.562,0.534-3.743
					c-0.886-1.181-2.562-1.42-3.743-0.534C428.189,507.426,427.95,509.102,428.836,510.283z"/>
				<path style="fill:#825252;" d="M439.336,527.065c0.886,1.181,2.562,1.42,3.743,0.534c1.181-0.886,1.42-2.562,0.534-3.743
					c-0.886-1.181-2.562-1.42-3.743-0.534C438.69,524.208,438.45,525.884,439.336,527.065z"/>
				<path style="fill:#825252;" d="M450.371,543.445c0.886,1.181,2.562,1.42,3.743,0.534c1.181-0.886,1.42-2.562,0.534-3.743
					c-0.886-1.181-2.562-1.42-3.743-0.534C449.725,540.589,449.485,542.264,450.371,543.445z"/>
			</g>
			<g>
				<path style="fill:#CBA06D;" d="M448.475,462.959l90.862,12.97c1.328,0.189,2.251,1.42,2.062,2.748l-0.007,0.049
					c-0.189,1.328-1.42,2.251-2.748,2.061l-90.862-12.97L448.475,462.959z"/>
				<path style="fill:#CBA06D;" d="M432.856,463.208c0.645-4.517,4.829-7.656,9.346-7.011c4.517,0.645,7.656,4.829,7.011,9.346
					c-0.645,4.517-4.829,7.656-9.346,7.011C435.35,471.909,432.211,467.725,432.856,463.208z"/>
			</g>
			<g>
				<path style="fill:#CBA06D;" d="M410.674,469.504l7.506,91.476c0.11,1.337,1.283,2.332,2.62,2.222l0.049-0.004
					c1.337-0.11,2.332-1.283,2.222-2.62l-7.506-91.475L410.674,469.504z"/>
				<path style="fill:#CBA06D;" d="M411.858,453.927c-4.547,0.373-7.931,4.362-7.558,8.909c0.373,4.547,4.362,7.931,8.91,7.558
					c4.547-0.373,7.931-4.362,7.558-8.909C420.394,456.938,416.405,453.554,411.858,453.927z"/>
			</g>
		</g>
		<g style="clip-path:url(#SVGID_00000106140909254368627250000008985522878054946495_);">
			<g>
				<defs>
					
						<ellipse id="XMLID_00000140707936943192890250000014287453975569857970_" transform="matrix(0.9861 -0.1664 0.1664 0.9861 -61.2772 108.8042)" cx="618.672" cy="420.086" rx="18.32" ry="18.32"/>
				</defs>
				<use xlink:href="#XMLID_00000140707936943192890250000014287453975569857970_"  style="overflow:visible;fill:#363636;"/>
				<clipPath id="XMLID_00000000907877142643683490000010459897078447799452_">
					<use xlink:href="#XMLID_00000140707936943192890250000014287453975569857970_"  style="overflow:visible;"/>
				</clipPath>
				<path style="opacity:0.35;clip-path:url(#XMLID_00000000907877142643683490000010459897078447799452_);fill:#FFFFFF;" d="
					M638.589,441.011l1.054-0.342l-3.425-10.557l5.685-1.263l-0.241-1.082l-5.788,1.286l-1.732-5.338l6.332-1.406l-0.241-1.082
					l-6.434,1.429l-1.614-4.974l6.178-1.372l-0.241-1.082l-6.281,1.395l-1.638-5.047l6.965-1.547l-0.241-1.082l-7.068,1.57
					l-1.709-5.267l7.265-1.614l-0.241-1.082l-7.368,1.636l-2.316-7.138l-1.054,0.342l2.283,7.038l-5.526,1.227l-2.272-7.004
					l-1.054,0.342l2.24,6.904l-5.18,1.151l-2.023-6.237l-1.054,0.342l1.991,6.137l-5.104,1.134l-2.072-6.386l-1.054,0.342
					l2.039,6.286l-5.478,1.217l-1.867-5.756l-1.054,0.342l1.835,5.656l-10.673,2.371l0.241,1.082l10.776-2.393l1.709,5.268
					l-10.973,2.437l0.241,1.082l11.076-2.46l1.638,5.048l-11.76,2.612l0.241,1.082l11.863-2.635l1.614,4.974l-11.607,2.578
					l0.24,1.082l11.71-2.601l1.732,5.338l-12.253,2.722l0.241,1.082l12.356-2.744l3.906,12.04l1.054-0.342l-3.873-11.939
					l5.478-1.217l3.702,11.41l1.054-0.342l-3.669-11.309l5.105-1.134l3.75,11.559l1.054-0.342l-3.718-11.458l5.18-1.151
					l3.501,10.792l1.054-0.342l-3.469-10.691l5.526-1.227L638.589,441.011z M632.713,422.898l-5.526,1.227l-1.614-4.974l5.526-1.227
					L632.713,422.898z M617.876,419.726l-5.105,1.134l-1.637-5.048l5.104-1.134L617.876,419.726z M617.325,414.437l5.18-1.151
					l1.637,5.048l-5.18,1.151L617.325,414.437z M618.22,420.785l1.614,4.974l-5.104,1.134l-1.614-4.974L618.22,420.785z
					 M619.307,420.543l5.18-1.151l1.614,4.974l-5.18,1.151L619.307,420.543z M630.756,416.865l-5.526,1.227l-1.638-5.048
					l5.526-1.227L630.756,416.865z M627.066,405.491l1.709,5.268l-5.526,1.227l-1.709-5.267L627.066,405.491z M620.453,406.96
					l1.709,5.267l-5.18,1.151l-1.709-5.267L620.453,406.96z M614.186,408.352l1.709,5.267l-5.104,1.134l-1.709-5.267
					L614.186,408.352z M602.517,410.944l5.478-1.217l1.709,5.267l-5.478,1.217L602.517,410.944z M604.569,417.27l5.478-1.217
					l1.638,5.048l-5.478,1.217L604.569,417.27z M606.55,423.377l5.478-1.217l1.614,4.974l-5.478,1.217L606.55,423.377z
					 M610.239,434.747l-1.732-5.338l5.478-1.217l1.732,5.338L610.239,434.747z M616.804,433.289l-1.732-5.338l5.105-1.134
					l1.732,5.338L616.804,433.289z M622.995,431.914l-1.732-5.338l5.18-1.151l1.732,5.338L622.995,431.914z M629.263,430.522
					l-1.732-5.338l5.526-1.227l1.732,5.338L629.263,430.522z"/>
			</g>
			<path style="fill:#8F6464;" d="M601.063,412.282l33.27,19.016c0.941,0.538,2.141,0.211,2.679-0.73l0,0
				c0.538-0.941,0.211-2.141-0.73-2.679l-33.27-19.016c-0.941-0.538-2.141-0.211-2.678,0.73l0,0
				C599.795,410.545,600.122,411.744,601.063,412.282z"/>
			<g>
				<defs>
					<polygon id="XMLID_00000110460363802806256230000008209399049876870321_" points="573.511,515.567 559.321,507.456 
						600.67,428.473 620.582,439.854 					"/>
				</defs>
				<use xlink:href="#XMLID_00000110460363802806256230000008209399049876870321_"  style="overflow:visible;fill:#DA6767;"/>
				<clipPath id="XMLID_00000025424639902180930840000011729159847706692228_">
					<use xlink:href="#XMLID_00000110460363802806256230000008209399049876870321_"  style="overflow:visible;"/>
				</clipPath>
			</g>
			<path style="fill:#8F6464;" d="M623.843,437.196l-22.537-12.882c-0.941-0.538-2.14-0.211-2.679,0.73
				c-0.538,0.941-0.211,2.141,0.73,2.678l0.381,0.217l-1.802,3.923l21.112,12.067l2.466-3.544l0.38,0.218
				c0.941,0.538,2.141,0.211,2.679-0.73C625.111,438.933,624.784,437.734,623.843,437.196z"/>
		</g>
		<g style="clip-path:url(#SVGID_00000106140909254368627250000008985522878054946495_);">
			<path style="fill:#3E3E3D;" d="M640.387,500.519l576.182-195.532c12.708-4.313,26.506,2.493,30.819,15.201l30.503,89.882
				c4.313,12.708-2.494,26.506-15.201,30.819L686.506,636.421c-12.708,4.313-26.506-2.493-30.819-15.201l-30.502-89.882
				C620.872,518.629,627.678,504.831,640.387,500.519z"/>
			<g>
				
					<rect x="1062.167" y="359.65" transform="matrix(0.947 -0.3214 0.3214 0.947 -74.181 365.8461)" style="fill:#F5F5F5;" width="17.979" height="95.974"/>
				
					<rect x="1079.192" y="353.873" transform="matrix(0.947 -0.3214 0.3214 0.947 -71.4213 371.009)" style="fill:#F5F5F5;" width="17.978" height="95.974"/>
				
					<rect x="1080.644" y="392.822" transform="matrix(0.947 -0.3214 0.3214 0.947 -78.1219 371.2768)" style="fill:#3E3E3D;" width="9.954" height="58.932"/>
				
					<rect x="1096.217" y="348.095" transform="matrix(0.947 -0.3214 0.3214 0.947 -68.6616 376.1753)" style="fill:#F5F5F5;" width="17.979" height="95.974"/>
				
					<rect x="1097.669" y="387.044" transform="matrix(0.947 -0.3214 0.3214 0.947 -75.3621 376.4416)" style="fill:#3E3E3D;" width="9.954" height="58.932"/>
				
					<rect x="1113.242" y="342.318" transform="matrix(0.947 -0.3214 0.3214 0.947 -65.902 381.34)" style="fill:#F5F5F5;" width="17.978" height="95.974"/>
				
					<rect x="1114.694" y="381.267" transform="matrix(0.947 -0.3213 0.3213 0.947 -72.601 381.5489)" style="fill:#3E3E3D;" width="9.953" height="58.931"/>
				
					<rect x="1130.267" y="336.54" transform="matrix(0.947 -0.3214 0.3214 0.947 -63.1423 386.5047)" style="fill:#F5F5F5;" width="17.979" height="95.974"/>
				
					<rect x="1147.292" y="330.763" transform="matrix(0.947 -0.3214 0.3214 0.947 -60.3825 391.6693)" style="fill:#F5F5F5;" width="17.979" height="95.974"/>
				
					<rect x="1148.744" y="369.712" transform="matrix(0.947 -0.3214 0.3214 0.947 -67.0829 391.9241)" style="fill:#3E3E3D;" width="9.954" height="58.932"/>
				
					<rect x="1164.317" y="324.985" transform="matrix(0.947 -0.3214 0.3214 0.947 -57.6228 396.834)" style="fill:#F5F5F5;" width="17.979" height="95.974"/>
				
					<rect x="1165.769" y="363.934" transform="matrix(0.947 -0.3214 0.3214 0.947 -64.3232 397.1005)" style="fill:#3E3E3D;" width="9.953" height="58.931"/>
				
					<rect x="1154.026" y="329.437" transform="matrix(0.947 -0.3212 0.3212 0.947 -50.545 389.5306)" style="fill:#AFAFAF;" width="2.597" height="37.043"/>
				
					<rect x="1137.001" y="335.214" transform="matrix(0.947 -0.3213 0.3213 0.947 -53.2987 384.5289)" style="fill:#AFAFAF;" width="2.597" height="37.042"/>
				
					<rect x="1129.445" y="339.429" transform="matrix(0.947 -0.3213 0.3213 0.947 -64.522 383.8871)" style="fill:#AFAFAF;" width="2.597" height="95.974"/>
				
					<rect x="1102.951" y="346.77" transform="matrix(0.947 -0.3214 0.3214 0.947 -58.8173 374.227)" style="fill:#AFAFAF;" width="2.597" height="37.042"/>
				
					<rect x="1085.926" y="352.547" transform="matrix(0.947 -0.3214 0.3214 0.947 -61.577 369.0624)" style="fill:#AFAFAF;" width="2.597" height="37.043"/>
				
					<rect x="1068.901" y="358.325" transform="matrix(0.947 -0.3214 0.3214 0.947 -64.3366 363.8979)" style="fill:#AFAFAF;" width="2.597" height="37.043"/>
				
					<rect x="942.992" y="400.093" transform="matrix(0.947 -0.3214 0.3214 0.947 -93.4989 329.6938)" style="fill:#F5F5F5;" width="17.979" height="95.974"/>
				
					<rect x="960.017" y="394.316" transform="matrix(0.947 -0.3214 0.3214 0.947 -90.7392 334.8584)" style="fill:#F5F5F5;" width="17.978" height="95.974"/>
				
					<rect x="961.469" y="433.264" transform="matrix(0.947 -0.3214 0.3214 0.947 -97.4389 335.1136)" style="fill:#3E3E3D;" width="9.954" height="58.932"/>
				
					<rect x="977.042" y="388.538" transform="matrix(0.947 -0.3214 0.3214 0.947 -87.9795 340.0228)" style="fill:#F5F5F5;" width="17.979" height="95.974"/>
				
					<rect x="978.494" y="427.487" transform="matrix(0.947 -0.3214 0.3214 0.947 -94.6793 340.2783)" style="fill:#3E3E3D;" width="9.954" height="58.932"/>
				
					<rect x="994.067" y="382.761" transform="matrix(0.947 -0.3214 0.3214 0.947 -85.2198 345.1874)" style="fill:#F5F5F5;" width="17.979" height="95.974"/>
				
					<rect x="995.519" y="421.709" transform="matrix(0.947 -0.3213 0.3213 0.947 -91.9153 345.3979)" style="fill:#3E3E3D;" width="9.953" height="58.931"/>
				
					<rect x="1011.092" y="376.983" transform="matrix(0.947 -0.3214 0.3214 0.947 -82.4602 350.3521)" style="fill:#F5F5F5;" width="17.979" height="95.974"/>
				
					<rect x="1028.117" y="371.206" transform="matrix(0.947 -0.3214 0.3214 0.947 -79.7001 355.5109)" style="fill:#F5F5F5;" width="17.979" height="95.974"/>
				
					<rect x="1029.569" y="410.155" transform="matrix(0.947 -0.3214 0.3214 0.947 -86.4013 355.7827)" style="fill:#3E3E3D;" width="9.954" height="58.932"/>
				
					<rect x="1045.142" y="365.428" transform="matrix(0.947 -0.3214 0.3214 0.947 -76.9407 360.6814)" style="fill:#F5F5F5;" width="17.979" height="95.974"/>
				
					<rect x="1046.594" y="404.377" transform="matrix(0.947 -0.3214 0.3214 0.947 -83.6408 360.9366)" style="fill:#3E3E3D;" width="9.953" height="58.931"/>
				
					<rect x="1034.851" y="369.88" transform="matrix(0.947 -0.3214 0.3214 0.947 -69.8567 353.5976)" style="fill:#AFAFAF;" width="2.597" height="37.042"/>
				
					<rect x="1017.826" y="375.657" transform="matrix(0.947 -0.3214 0.3214 0.947 -72.6166 348.4326)" style="fill:#AFAFAF;" width="2.597" height="37.042"/>
				
					<rect x="1010.27" y="379.872" transform="matrix(0.947 -0.3214 0.3214 0.947 -83.8413 347.7883)" style="fill:#AFAFAF;" width="2.597" height="95.974"/>
				
					<rect x="983.776" y="387.212" transform="matrix(0.947 -0.3214 0.3214 0.947 -78.1348 338.0776)" style="fill:#AFAFAF;" width="2.597" height="37.042"/>
				
					<rect x="966.751" y="392.99" transform="matrix(0.947 -0.3214 0.3214 0.947 -80.8943 332.9105)" style="fill:#AFAFAF;" width="2.597" height="37.043"/>
				
					<rect x="949.726" y="398.767" transform="matrix(0.947 -0.3214 0.3214 0.947 -83.654 327.7459)" style="fill:#AFAFAF;" width="2.597" height="37.043"/>
				
					<rect x="823.817" y="440.536" transform="matrix(0.947 -0.3214 0.3214 0.947 -112.8158 293.5359)" style="fill:#F5F5F5;" width="17.979" height="95.974"/>
				
					<rect x="840.842" y="434.759" transform="matrix(0.947 -0.3214 0.3214 0.947 -110.0578 298.7092)" style="fill:#F5F5F5;" width="17.978" height="95.974"/>
				
					<rect x="842.294" y="473.707" transform="matrix(0.947 -0.3214 0.3214 0.947 -116.7565 298.9615)" style="fill:#3E3E3D;" width="9.954" height="58.932"/>
				
					<rect x="857.867" y="428.981" transform="matrix(0.947 -0.3214 0.3214 0.947 -107.2965 303.8651)" style="fill:#F5F5F5;" width="17.979" height="95.974"/>
				
					<rect x="859.319" y="467.93" transform="matrix(0.947 -0.3214 0.3214 0.947 -113.9968 304.1262)" style="fill:#3E3E3D;" width="9.954" height="58.932"/>
				
					<rect x="874.892" y="423.204" transform="matrix(0.947 -0.3214 0.3214 0.947 -104.5377 309.0349)" style="fill:#F5F5F5;" width="17.979" height="95.974"/>
				
					<rect x="876.344" y="462.152" transform="matrix(0.947 -0.3214 0.3214 0.947 -111.2396 309.304)" style="fill:#3E3E3D;" width="9.953" height="58.932"/>
				
					<rect x="891.917" y="417.426" transform="matrix(0.947 -0.3214 0.3214 0.947 -101.7781 314.1996)" style="fill:#F5F5F5;" width="17.979" height="95.974"/>
				
					<rect x="908.942" y="411.648" transform="matrix(0.947 -0.3214 0.3214 0.947 -99.0183 319.3642)" style="fill:#F5F5F5;" width="17.979" height="95.974"/>
				
					<rect x="910.394" y="450.597" transform="matrix(0.947 -0.3214 0.3214 0.947 -105.718 319.62)" style="fill:#3E3E3D;" width="9.954" height="58.932"/>
				
					<rect x="925.967" y="405.871" transform="matrix(0.947 -0.3214 0.3214 0.947 -96.2586 324.5285)" style="fill:#F5F5F5;" width="17.979" height="95.974"/>
				
					<rect x="927.419" y="444.82" transform="matrix(0.947 -0.3214 0.3214 0.947 -102.9584 324.7852)" style="fill:#3E3E3D;" width="9.954" height="58.932"/>
				
					<rect x="915.676" y="410.323" transform="matrix(0.947 -0.3213 0.3213 0.947 -89.172 317.4064)" style="fill:#AFAFAF;" width="2.597" height="37.042"/>
				
					<rect x="898.651" y="416.1" transform="matrix(0.947 -0.3213 0.3213 0.947 -91.9315 312.2419)" style="fill:#AFAFAF;" width="2.597" height="37.042"/>
				
					<rect x="891.095" y="420.314" transform="matrix(0.9469 -0.3215 0.3215 0.9469 -103.1836 311.7811)" style="fill:#AFAFAF;" width="2.597" height="95.974"/>
				
					<rect x="864.601" y="427.655" transform="matrix(0.947 -0.3214 0.3214 0.947 -97.4521 301.9232)" style="fill:#AFAFAF;" width="2.597" height="37.042"/>
				
					<rect x="847.576" y="433.433" transform="matrix(0.9469 -0.3214 0.3214 0.9469 -100.2177 296.7951)" style="fill:#AFAFAF;" width="2.598" height="37.043"/>
				
					<rect x="830.551" y="439.21" transform="matrix(0.9469 -0.3214 0.3214 0.9469 -102.9774 291.6281)" style="fill:#AFAFAF;" width="2.597" height="37.042"/>
				
					<rect x="704.642" y="480.979" transform="matrix(0.947 -0.3214 0.3214 0.947 -132.1347 257.3884)" style="fill:#F5F5F5;" width="17.979" height="95.974"/>
				
					<rect x="721.667" y="475.201" transform="matrix(0.947 -0.3214 0.3214 0.947 -129.3746 262.5517)" style="fill:#F5F5F5;" width="17.978" height="95.974"/>
				
					<rect x="723.119" y="514.15" transform="matrix(0.947 -0.3214 0.3214 0.947 -136.0766 262.8177)" style="fill:#3E3E3D;" width="9.954" height="58.932"/>
				
					<rect x="738.692" y="469.424" transform="matrix(0.947 -0.3214 0.3214 0.947 -126.6153 267.7176)" style="fill:#F5F5F5;" width="17.979" height="95.974"/>
				
					<rect x="740.144" y="508.372" transform="matrix(0.947 -0.3214 0.3214 0.947 -133.317 267.9828)" style="fill:#3E3E3D;" width="9.954" height="58.932"/>
				
					<rect x="755.717" y="463.646" transform="matrix(0.947 -0.3214 0.3214 0.947 -123.8556 272.8823)" style="fill:#F5F5F5;" width="17.979" height="95.974"/>
				
					<rect x="757.169" y="502.595" transform="matrix(0.947 -0.3214 0.3214 0.947 -130.5547 273.1387)" style="fill:#3E3E3D;" width="9.954" height="58.932"/>
				
					<rect x="772.742" y="457.869" transform="matrix(0.947 -0.3214 0.3214 0.947 -121.0959 278.047)" style="fill:#F5F5F5;" width="17.979" height="95.974"/>
				
					<rect x="789.767" y="452.091" transform="matrix(0.947 -0.3214 0.3214 0.947 -118.3362 283.2114)" style="fill:#F5F5F5;" width="17.979" height="95.974"/>
				
					<rect x="791.219" y="491.04" transform="matrix(0.947 -0.3214 0.3214 0.947 -125.0379 283.4771)" style="fill:#3E3E3D;" width="9.954" height="58.932"/>
				
					<rect x="806.792" y="446.314" transform="matrix(0.947 -0.3214 0.3214 0.947 -115.5766 288.3765)" style="fill:#F5F5F5;" width="17.978" height="95.974"/>
				
					<rect x="808.244" y="485.263" transform="matrix(0.947 -0.3214 0.3214 0.947 -122.278 288.6414)" style="fill:#3E3E3D;" width="9.954" height="58.932"/>
				
					<rect x="796.502" y="450.765" transform="matrix(0.947 -0.3214 0.3214 0.947 -108.4931 281.2773)" style="fill:#AFAFAF;" width="2.597" height="37.042"/>
				
					<rect x="779.476" y="456.543" transform="matrix(0.947 -0.3213 0.3213 0.947 -111.2456 276.08)" style="fill:#AFAFAF;" width="2.597" height="37.042"/>
				
					<rect x="771.921" y="460.757" transform="matrix(0.947 -0.3213 0.3213 0.947 -122.4713 275.4476)" style="fill:#AFAFAF;" width="2.597" height="95.974"/>
				
					<rect x="745.426" y="468.098" transform="matrix(0.947 -0.3213 0.3213 0.947 -116.7663 265.7592)" style="fill:#AFAFAF;" width="2.597" height="37.042"/>
				
					<rect x="728.401" y="473.876" transform="matrix(0.947 -0.3213 0.3213 0.947 -119.5262 260.5962)" style="fill:#AFAFAF;" width="2.598" height="37.043"/>
				
					<rect x="711.376" y="479.653" transform="matrix(0.947 -0.3214 0.3214 0.947 -122.2887 255.4422)" style="fill:#AFAFAF;" width="2.597" height="37.042"/>
				
					<rect x="1061.345" y="362.539" transform="matrix(0.9469 -0.3214 0.3214 0.9469 -75.5623 363.2976)" style="fill:#AFAFAF;" width="2.597" height="95.974"/>
				
					<rect x="942.17" y="402.982" transform="matrix(0.947 -0.3214 0.3214 0.947 -94.878 327.1042)" style="fill:#AFAFAF;" width="2.597" height="95.974"/>
				
					<rect x="822.995" y="443.425" transform="matrix(0.947 -0.3213 0.3213 0.947 -114.1929 290.9407)" style="fill:#AFAFAF;" width="2.597" height="95.974"/>
			</g>
			
				<ellipse transform="matrix(0.947 -0.3214 0.3214 0.947 -56.3771 413.8732)" style="fill:#585857;" cx="1225.544" cy="377.718" rx="28.356" ry="57.902"/>
			<path style="fill:#3E3E3D;" d="M1212.212,382.242c-2.499-7.363,1.445-15.357,8.808-17.856c7.363-2.499,15.357,1.444,17.856,8.808
				c2.499,7.363-1.445,15.357-8.808,17.856C1222.705,393.549,1214.711,389.605,1212.212,382.242z"/>
			<path style="fill:#585857;" d="M648.885,573.411c-10.276-30.282-6.585-58.91,8.245-63.943
				c14.83-5.033,35.183,15.436,45.459,45.718c10.277,30.282,6.585,58.91-8.245,63.943
				C679.514,624.162,659.161,603.693,648.885,573.411z"/>
			
				<ellipse transform="matrix(0.5321 -0.8467 0.8467 0.5321 -161.5888 836.2169)" style="fill:#3E3E3D;" cx="675.737" cy="564.299" rx="14.079" ry="14.079"/>
			<path style="fill:#585857;" d="M729.837,581.006l458.172-155.484c6.251-2.121,13.039,1.227,15.16,7.478l2.258,6.655
				c2.121,6.252-1.227,13.039-7.478,15.16L739.778,610.299c-6.252,2.121-13.039-1.227-15.161-7.478l-2.258-6.655
				C720.237,589.915,723.585,583.128,729.837,581.006z"/>
			
				<rect x="1068.167" y="465.863" transform="matrix(0.947 -0.3214 0.3214 0.947 -94.6503 376.1054)" style="fill:#F5F5F5;" width="47.66" height="17.821"/>
			<path style="fill:#9B9B9A;" d="M1148.106,454.868c-1.727-5.088,0.998-10.613,6.087-12.34c5.088-1.727,10.613,0.998,12.339,6.086
				c1.727,5.088-0.998,10.613-6.087,12.34C1155.357,462.681,1149.833,459.956,1148.106,454.868z"/>
			<path style="fill:#858585;" d="M1130.87,453.891c-0.58-1.707,0.334-3.561,2.042-4.141c1.707-0.579,3.561,0.335,4.141,2.042
				c0.579,1.708-0.335,3.561-2.042,4.14C1133.302,456.513,1131.448,455.598,1130.87,453.891z"/>
			<path style="fill:#858585;" d="M1135.024,466.134c-0.579-1.708,0.335-3.561,2.042-4.14c1.707-0.58,3.561,0.335,4.14,2.042
				c0.58,1.707-0.334,3.561-2.042,4.14C1137.457,468.756,1135.603,467.841,1135.024,466.134z"/>
			<path style="fill:#858585;" d="M1046.974,482.361c-0.58-1.707,0.335-3.561,2.042-4.14c1.707-0.579,3.561,0.335,4.14,2.042
				c0.579,1.707-0.335,3.561-2.042,4.14C1049.407,484.983,1047.553,484.069,1046.974,482.361z"/>
			<path style="fill:#858585;" d="M1051.129,494.605c-0.579-1.708,0.335-3.561,2.042-4.141c1.707-0.579,3.561,0.335,4.14,2.042
				c0.58,1.708-0.335,3.561-2.042,4.141C1053.562,497.226,1051.708,496.312,1051.129,494.605z"/>
			<path style="fill:#858585;" d="M1035.811,486.149c-0.579-1.707,0.335-3.561,2.042-4.14c1.708-0.58,3.561,0.335,4.141,2.043
				c0.579,1.707-0.335,3.561-2.042,4.141C1038.244,488.771,1036.391,487.857,1035.811,486.149z"/>
			<path style="fill:#858585;" d="M1039.966,498.393c-0.58-1.707,0.335-3.561,2.042-4.14c1.707-0.579,3.561,0.335,4.14,2.042
				c0.579,1.707-0.335,3.561-2.042,4.14C1042.399,501.015,1040.545,500.1,1039.966,498.393z"/>
			<path style="fill:#858585;" d="M1024.649,489.937c-0.58-1.707,0.335-3.561,2.042-4.14c1.707-0.579,3.561,0.335,4.14,2.042
				c0.579,1.707-0.335,3.561-2.042,4.14C1027.082,492.559,1025.228,491.645,1024.649,489.937z"/>
			<path style="fill:#858585;" d="M1028.803,502.181c-0.579-1.708,0.335-3.561,2.042-4.141c1.707-0.579,3.561,0.335,4.14,2.042
				c0.58,1.708-0.335,3.561-2.042,4.141C1031.236,504.802,1029.382,503.888,1028.803,502.181z"/>
			<path style="fill:#858585;" d="M1013.485,493.726c-0.579-1.707,0.335-3.561,2.042-4.14c1.708-0.58,3.561,0.335,4.141,2.042
				c0.579,1.707-0.335,3.561-2.042,4.14C1015.919,496.347,1014.065,495.433,1013.485,493.726z"/>
			<path style="fill:#858585;" d="M1017.641,505.969c-0.58-1.707,0.335-3.561,2.042-4.14c1.707-0.579,3.561,0.335,4.14,2.042
				c0.579,1.707-0.335,3.561-2.042,4.14C1020.074,508.591,1018.22,507.677,1017.641,505.969z"/>
			<path style="fill:#858585;" d="M1002.323,497.514c-0.58-1.707,0.334-3.561,2.042-4.141c1.707-0.579,3.561,0.335,4.14,2.042
				c0.579,1.708-0.335,3.561-2.042,4.14C1004.756,500.136,1002.902,499.221,1002.323,497.514z"/>
			<path style="fill:#858585;" d="M1006.477,509.757c-0.579-1.708,0.335-3.561,2.042-4.14c1.707-0.58,3.561,0.335,4.14,2.042
				c0.58,1.707-0.334,3.561-2.042,4.14C1008.911,512.379,1007.057,511.464,1006.477,509.757z"/>
			<path style="fill:#858585;" d="M995.315,513.545c-0.58-1.707,0.335-3.561,2.042-4.14c1.707-0.579,3.561,0.335,4.14,2.042
				c0.579,1.707-0.335,3.561-2.042,4.14C997.748,516.167,995.894,515.253,995.315,513.545z"/>
			<path style="fill:#858585;" d="M984.152,517.334c-0.579-1.707,0.335-3.561,2.042-4.14c1.707-0.58,3.561,0.335,4.14,2.042
				c0.58,1.707-0.335,3.561-2.042,4.14C986.585,519.955,984.731,519.041,984.152,517.334z"/>
			<path style="fill:#858585;" d="M972.989,521.122c-0.579-1.707,0.335-3.561,2.042-4.14c1.708-0.579,3.561,0.335,4.141,2.043
				c0.579,1.707-0.335,3.561-2.042,4.14C975.422,523.744,973.568,522.829,972.989,521.122z"/>
			<path style="fill:#858585;" d="M957.671,512.667c-0.58-1.708,0.335-3.561,2.043-4.141c1.707-0.579,3.561,0.335,4.14,2.042
				c0.579,1.708-0.335,3.561-2.043,4.141C960.104,515.289,958.25,514.374,957.671,512.667z"/>
			<path style="fill:#858585;" d="M961.826,524.91c-0.579-1.707,0.335-3.561,2.042-4.14c1.707-0.58,3.561,0.335,4.14,2.042
				c0.58,1.707-0.335,3.561-2.042,4.14C964.259,527.532,962.405,526.617,961.826,524.91z"/>
			<path style="fill:#858585;" d="M946.508,516.455c-0.579-1.707,0.335-3.561,2.042-4.14c1.707-0.58,3.561,0.335,4.14,2.042
				c0.58,1.707-0.335,3.561-2.042,4.14C948.942,519.076,947.088,518.162,946.508,516.455z"/>
			<path style="fill:#858585;" d="M950.663,528.698c-0.579-1.707,0.335-3.561,2.042-4.14c1.708-0.579,3.561,0.335,4.141,2.042
				c0.579,1.707-0.335,3.561-2.042,4.14C953.096,531.32,951.243,530.406,950.663,528.698z"/>
			<path style="fill:#858585;" d="M935.345,520.243c-0.58-1.708,0.335-3.561,2.043-4.141c1.707-0.579,3.561,0.335,4.14,2.042
				c0.579,1.708-0.335,3.561-2.043,4.141C937.779,522.865,935.925,521.95,935.345,520.243z"/>
			<path style="fill:#858585;" d="M939.5,532.487c-0.579-1.707,0.335-3.561,2.042-4.14c1.707-0.58,3.561,0.335,4.14,2.042
				c0.58,1.707-0.335,3.561-2.042,4.14C941.934,535.108,940.08,534.194,939.5,532.487z"/>
			<path style="fill:#858585;" d="M924.183,524.031c-0.579-1.707,0.335-3.561,2.042-4.14c1.707-0.58,3.561,0.335,4.14,2.042
				c0.58,1.707-0.335,3.561-2.042,4.14C926.616,526.653,924.762,525.738,924.183,524.031z"/>
			<path style="fill:#858585;" d="M928.337,536.274c-0.579-1.707,0.335-3.561,2.042-4.14c1.708-0.579,3.561,0.335,4.141,2.042
				c0.579,1.707-0.335,3.561-2.042,4.14C930.77,538.896,928.917,537.982,928.337,536.274z"/>
			<path style="fill:#858585;" d="M913.02,527.82c-0.579-1.708,0.335-3.561,2.043-4.141c1.707-0.579,3.561,0.335,4.14,2.042
				c0.579,1.708-0.335,3.561-2.042,4.141C915.453,530.441,913.599,529.527,913.02,527.82z"/>
			<path style="fill:#858585;" d="M917.175,540.063c-0.579-1.707,0.335-3.561,2.042-4.141c1.707-0.58,3.561,0.335,4.14,2.042
				c0.58,1.707-0.335,3.561-2.042,4.14C919.608,542.684,917.754,541.77,917.175,540.063z"/>
			<path style="fill:#858585;" d="M793.02,568.542c-0.58-1.707,0.334-3.561,2.042-4.14c1.707-0.579,3.561,0.335,4.14,2.042
				c0.579,1.708-0.335,3.561-2.042,4.141C795.453,571.164,793.599,570.25,793.02,568.542z"/>
			<path style="fill:#858585;" d="M797.175,580.786c-0.579-1.708,0.335-3.561,2.042-4.14c1.707-0.58,3.561,0.335,4.141,2.042
				c0.58,1.707-0.334,3.561-2.042,4.14C799.608,583.407,797.754,582.493,797.175,580.786z"/>
			<path style="fill:#858585;" d="M781.857,572.33c-0.579-1.707,0.335-3.561,2.042-4.14c1.708-0.58,3.561,0.335,4.141,2.043
				c0.579,1.707-0.335,3.561-2.042,4.14C784.29,574.952,782.437,574.038,781.857,572.33z"/>
			<path style="fill:#858585;" d="M786.012,584.574c-0.58-1.707,0.335-3.561,2.042-4.14c1.707-0.579,3.561,0.335,4.14,2.042
				c0.579,1.707-0.335,3.561-2.042,4.14C788.445,587.196,786.591,586.281,786.012,584.574z"/>
			<path style="fill:#858585;" d="M770.694,576.119c-0.58-1.708,0.335-3.561,2.043-4.141c1.707-0.579,3.561,0.335,4.14,2.042
				c0.579,1.708-0.335,3.561-2.043,4.141C773.128,578.74,771.274,577.826,770.694,576.119z"/>
			<path style="fill:#858585;" d="M774.849,588.362c-0.579-1.707,0.335-3.561,2.042-4.14c1.707-0.58,3.561,0.335,4.14,2.042
				c0.58,1.707-0.335,3.561-2.042,4.14C777.282,590.984,775.428,590.069,774.849,588.362z"/>
			<path style="fill:#858585;" d="M758.97,580.097c-0.579-1.707,0.335-3.561,2.042-4.141s3.561,0.335,4.14,2.042
				c0.58,1.707-0.335,3.561-2.042,4.14C761.403,582.719,759.549,581.805,758.97,580.097z"/>
			<path style="fill:#858585;" d="M763.125,592.341c-0.579-1.708,0.335-3.561,2.043-4.141c1.708-0.579,3.561,0.335,4.141,2.042
				c0.579,1.708-0.335,3.561-2.043,4.141C765.558,594.962,763.704,594.048,763.125,592.341z"/>
			<path style="fill:#858585;" d="M747.807,583.885c-0.579-1.708,0.335-3.561,2.043-4.141c1.708-0.579,3.561,0.335,4.141,2.043
				c0.579,1.708-0.335,3.561-2.042,4.141C750.24,586.507,748.387,585.593,747.807,583.885z"/>
			<path style="fill:#858585;" d="M751.962,596.129c-0.579-1.707,0.335-3.561,2.042-4.14c1.707-0.58,3.561,0.335,4.14,2.042
				c0.58,1.707-0.335,3.561-2.042,4.14C754.396,598.75,752.542,597.836,751.962,596.129z"/>
			<path style="fill:#858585;" d="M736.644,587.674c-0.579-1.707,0.335-3.561,2.042-4.14c1.707-0.579,3.561,0.335,4.14,2.042
				c0.58,1.707-0.335,3.561-2.042,4.14C739.077,590.296,737.223,589.381,736.644,587.674z"/>
			<path style="fill:#858585;" d="M740.799,599.917c-0.579-1.708,0.335-3.561,2.042-4.141c1.708-0.579,3.561,0.335,4.141,2.042
				c0.579,1.708-0.335,3.561-2.043,4.141C743.232,602.539,741.379,601.625,740.799,599.917z"/>
			<path style="fill:#858585;" d="M1177.586,451.69c-0.579-1.708,0.335-3.561,2.043-4.141c1.708-0.579,3.561,0.335,4.141,2.042
				c0.579,1.708-0.335,3.561-2.042,4.141C1180.02,454.312,1178.166,453.398,1177.586,451.69z"/>
			<path style="fill:#858585;" d="M1173.432,439.447c-0.58-1.707,0.335-3.561,2.042-4.14c1.707-0.579,3.561,0.335,4.14,2.042
				c0.579,1.707-0.335,3.561-2.042,4.14C1175.865,442.069,1174.011,441.154,1173.432,439.447z"/>
			
				<rect x="968.058" y="500.914" transform="matrix(0.947 -0.3213 0.3213 0.947 -109.8956 342.5176)" style="fill:#858585;" width="29.249" height="6.53"/>
			<path style="fill:#3E3E3D;" d="M890.44,533.977c-0.327-0.962,0.188-2.007,1.151-2.333l0,0c0.962-0.326,2.006,0.189,2.332,1.15
				l5.632,16.595c0.326,0.962-0.189,2.006-1.15,2.332l0,0c-0.962,0.327-2.007-0.188-2.333-1.151L890.44,533.977z"/>
			<path style="fill:#3E3E3D;" d="M875.157,539.163c-0.327-0.962,0.188-2.007,1.151-2.333l0,0c0.962-0.326,2.006,0.189,2.332,1.15
				l5.632,16.595c0.326,0.962-0.189,2.006-1.15,2.332l0,0c-0.962,0.327-2.007-0.188-2.333-1.151L875.157,539.163z"/>
			<path style="fill:#3E3E3D;" d="M859.873,544.35c-0.327-0.962,0.188-2.006,1.151-2.333l0,0c0.962-0.326,2.006,0.189,2.332,1.15
				l5.632,16.595c0.326,0.962-0.189,2.006-1.15,2.332l0,0c-0.962,0.327-2.007-0.188-2.333-1.151L859.873,544.35z"/>
			<path style="fill:#3E3E3D;" d="M844.589,549.536c-0.326-0.962,0.189-2.006,1.151-2.333l0,0c0.962-0.326,2.006,0.189,2.333,1.151
				l5.632,16.595c0.326,0.962-0.189,2.006-1.151,2.333l0,0c-0.962,0.326-2.006-0.189-2.333-1.151L844.589,549.536z"/>
			<path style="fill:#3E3E3D;" d="M829.306,554.723c-0.326-0.962,0.189-2.006,1.151-2.333l0,0c0.962-0.326,2.006,0.189,2.333,1.151
				l5.632,16.595c0.326,0.962-0.189,2.006-1.151,2.333l0,0c-0.962,0.326-2.006-0.189-2.333-1.151L829.306,554.723z"/>
			<path style="fill:#3E3E3D;" d="M814.023,559.909c-0.326-0.962,0.189-2.006,1.151-2.333l0,0c0.962-0.326,2.006,0.189,2.333,1.151
				l5.632,16.595c0.326,0.962-0.189,2.006-1.151,2.333l0,0c-0.962,0.326-2.006-0.189-2.333-1.151L814.023,559.909z"/>
			
				<rect x="890.42" y="543.809" transform="matrix(0.9469 -0.3214 0.3214 0.9469 -127.7518 316.9872)" style="fill:#858585;" width="11.654" height="3.265"/>
			
				<rect x="875.684" y="550.533" transform="matrix(0.947 -0.3213 0.3213 0.947 -130.6766 312.5311)" style="fill:#858585;" width="11.654" height="3.264"/>
			
				<rect x="857.318" y="546.56" transform="matrix(0.947 -0.3214 0.3214 0.947 -130.3823 306.4538)" style="fill:#858585;" width="11.654" height="3.265"/>
			
				<rect x="845.688" y="562.436" transform="matrix(0.947 -0.3214 0.3214 0.947 -136.1012 303.5586)" style="fill:#858585;" width="11.654" height="3.265"/>
			
				<rect x="829.379" y="564.523" transform="matrix(0.947 -0.3213 0.3213 0.947 -137.6282 298.3967)" style="fill:#858585;" width="11.654" height="3.265"/>
			
				<rect x="812.324" y="564.414" transform="matrix(0.947 -0.3214 0.3214 0.947 -138.5065 292.9418)" style="fill:#858585;" width="11.654" height="3.265"/>
		</g>
		<g style="clip-path:url(#SVGID_00000106140909254368627250000008985522878054946495_);">
			<g>
				<path style="fill:#825252;" d="M36.24,490.649c-1.442-2.919-2.927-5.831-4.455-8.734c7.414-38.591,14.828-77.182,22.243-115.773
					c3.103-2.014,6.241-3.999,9.414-5.956C54.374,403.673,45.307,447.161,36.24,490.649z"/>
				<path style="fill:#956060;" d="M63.441,360.186c2.126,3.061,4.207,6.136,6.244,9.221c-8.625,38.339-17.25,76.677-25.874,115.016
					c-2.559,2.052-5.083,4.127-7.571,6.227C45.307,447.161,54.374,403.673,63.441,360.186z"/>
				<path style="fill:#825252;" d="M47.982,493.29c-1.347-2.962-2.737-5.919-4.171-8.868c8.625-38.338,17.25-76.677,25.874-115.016
					c3.162-1.915,6.358-3.803,9.588-5.659C68.843,406.928,58.412,450.109,47.982,493.29z"/>
				<path style="fill:#956060;" d="M79.273,363.747c2.026,3.126,4.007,6.264,5.943,9.411
					c-9.826,38.048-19.652,76.097-29.477,114.145c-2.62,1.971-5.206,3.967-7.757,5.987
					C58.412,450.109,68.843,406.928,79.273,363.747z"/>
				<path style="fill:#825252;" d="M59.624,496.297c-1.252-3.003-2.547-6.001-3.885-8.994
					c9.826-38.048,19.651-76.097,29.477-114.145c3.218-1.816,6.469-3.602,9.754-5.357C83.188,410.633,71.406,453.465,59.624,496.297
					z"/>
				<path style="fill:#956060;" d="M94.97,367.801c1.925,3.188,3.804,6.385,5.639,9.591
					c-11.016,37.721-22.032,75.442-33.048,113.163c-2.679,1.887-5.325,3.802-7.936,5.742
					C71.406,453.465,83.188,410.633,94.97,367.801z"/>
				<path style="fill:#825252;" d="M71.157,499.665c-1.156-3.04-2.355-6.077-3.597-9.11c11.016-37.721,22.032-75.442,33.048-113.163
					c3.272-1.715,6.576-3.398,9.911-5.049C97.399,414.783,84.279,457.224,71.157,499.665z"/>
				<path style="fill:#956060;" d="M110.52,372.342c1.822,3.246,3.599,6.5,5.331,9.762c-12.195,37.357-24.389,74.713-36.584,112.07
					c-2.736,1.803-5.439,3.634-8.109,5.491C84.279,457.224,97.399,414.783,110.52,372.342z"/>
				<path style="fill:#825252;" d="M82.574,503.392c-1.059-3.074-2.161-6.147-3.307-9.217
					c12.195-37.357,24.389-74.714,36.584-112.07c3.322-1.612,6.677-3.191,10.062-4.737
					C111.466,419.375,97.02,461.383,82.574,503.392z"/>
				<path style="fill:#956060;" d="M125.912,377.367c1.718,3.301,3.391,6.609,5.02,9.924
					c-13.361,36.956-26.721,73.911-40.082,110.867c-2.791,1.716-5.55,3.461-8.276,5.234
					C97.02,461.383,111.466,419.375,125.912,377.367z"/>
				<path style="fill:#825252;" d="M93.865,507.474c-0.962-3.106-1.967-6.212-3.015-9.317
					c13.361-36.956,26.721-73.911,40.082-110.867c3.37-1.507,6.772-2.98,10.204-4.42
					C125.379,424.405,109.622,465.939,93.865,507.474z"/>
				<path style="fill:#956060;" d="M141.136,382.87c1.613,3.354,3.182,6.712,4.705,10.076
					c-14.513,36.518-29.027,73.037-43.54,109.555c-2.844,1.628-5.656,3.286-8.436,4.973
					C109.622,465.939,125.379,424.405,141.136,382.87z"/>
				<path style="fill:#825252;" d="M105.022,511.908c-0.864-3.135-1.771-6.271-2.722-9.407
					c14.513-36.518,29.027-73.037,43.54-109.555c3.417-1.4,6.863-2.766,10.338-4.097
					C139.127,429.869,122.075,470.888,105.022,511.908z"/>
				<path style="fill:#956060;" d="M156.179,388.849c1.508,3.402,2.97,6.809,4.388,10.219
					c-15.652,36.045-31.304,72.09-46.956,108.135c-2.894,1.538-5.757,3.107-8.589,4.705
					C122.075,470.888,139.127,429.868,156.179,388.849z"/>
				<path style="fill:#825252;" d="M116.038,516.691c-0.766-3.161-1.575-6.324-2.427-9.488
					c15.652-36.045,31.305-72.09,46.956-108.135c3.46-1.292,6.948-2.549,10.464-3.77C152.7,435.763,134.369,476.227,116.038,516.691
					z"/>
				<path style="fill:#956060;" d="M171.031,395.298c1.402,3.449,2.757,6.9,4.068,10.353
					c-16.776,35.536-33.552,71.072-50.327,106.608c-2.941,1.445-5.853,2.923-8.734,4.432
					C134.369,476.227,152.7,435.763,171.031,395.298z"/>
				<path style="fill:#825252;" d="M126.903,521.821c-0.667-3.184-1.378-6.372-2.131-9.561
					c16.776-35.536,33.552-71.072,50.327-106.608c3.5-1.182,7.027-2.328,10.581-3.437
					C166.088,442.083,146.496,481.952,126.903,521.821z"/>
				<path style="fill:#956060;" d="M185.681,402.214c1.293,3.492,2.542,6.985,3.746,10.478
					c-17.884,34.991-35.767,69.983-53.651,104.974c-2.987,1.352-5.945,2.737-8.873,4.154
					C146.496,481.952,166.088,442.083,185.681,402.214z"/>
				<path style="fill:#825252;" d="M137.609,527.292c-0.568-3.204-1.18-6.413-1.833-9.626
					c17.883-34.991,35.767-69.983,53.651-104.974c3.536-1.071,7.1-2.105,10.69-3.101
					C179.281,448.825,158.445,488.059,137.609,527.292z"/>
				<path style="fill:#956060;" d="M200.117,409.592c1.185,3.532,2.325,7.064,3.421,10.594
					c-18.975,34.412-37.949,68.824-56.924,103.236c-3.03,1.257-6.031,2.547-9.004,3.87
					C158.445,488.059,179.281,448.825,200.117,409.592z"/>
				<path style="fill:#825252;" d="M148.149,533.104c-0.469-3.222-0.981-6.449-1.535-9.682
					c18.974-34.412,37.949-68.824,56.924-103.236c3.571-0.958,7.167-1.878,10.789-2.759
					C192.268,455.986,170.209,494.545,148.149,533.104z"/>
				<path style="fill:#956060;" d="M214.327,417.428c1.076,3.569,2.108,7.136,3.095,10.701
					c-20.048,33.798-40.096,67.596-60.144,101.394c-3.07,1.159-6.112,2.353-9.128,3.581
					C170.209,494.545,192.268,455.986,214.327,417.428z"/>
			</g>
			<g>
				<path style="fill:#7481B3;" d="M5.017,487.318l-25.027-5.301c-5.392-1.142-8.837-6.439-7.695-11.831l24.816-117.158
					c1.142-5.392,6.439-8.837,11.831-7.695l25.027,5.301L5.017,487.318z"/>
				<path style="fill:#7F8CC7;" d="M25.712,491.702L5.499,487.42c-2.772-0.587-4.543-3.31-3.956-6.082l26.826-126.646
					c0.587-2.772,3.31-4.543,6.082-3.956l20.214,4.282c2.772,0.587,4.543,3.31,3.956,6.082L31.795,487.746
					C31.208,490.518,28.484,492.289,25.712,491.702z"/>
				<g>
					<g>
						
							<rect x="14.11" y="367.368" transform="matrix(0.2072 -0.9783 0.9783 0.2072 -354.71 313.0535)" style="fill:#FFFFFF;" width="3.373" height="16.024"/>
						<path style="fill:#FFFFFF;" d="M13.459,374.885c-0.644,3.038-3.628,4.979-6.666,4.335c-3.038-0.643-4.979-3.628-4.335-6.665
							c0.643-3.038,3.628-4.979,6.666-4.335C12.161,368.863,14.103,371.847,13.459,374.885z"/>
					</g>
					<g>
						
							<rect x="11.217" y="381.027" transform="matrix(0.2072 -0.9783 0.9783 0.2072 -370.3656 321.0508)" style="fill:#FFFFFF;" width="3.373" height="16.024"/>
						<path style="fill:#FFFFFF;" d="M10.566,388.543c-0.644,3.038-3.628,4.979-6.665,4.335c-3.038-0.644-4.979-3.628-4.335-6.665
							c0.643-3.038,3.627-4.979,6.665-4.335C9.268,382.521,11.21,385.505,10.566,388.543z"/>
					</g>
					<g>
						
							<rect x="8.324" y="394.685" transform="matrix(0.2072 -0.9783 0.9783 0.2072 -386.0214 329.0493)" style="fill:#FFFFFF;" width="3.373" height="16.024"/>
						<path style="fill:#FFFFFF;" d="M7.673,402.201c-0.643,3.038-3.628,4.979-6.665,4.335c-3.038-0.644-4.979-3.628-4.335-6.665
							c0.643-3.038,3.627-4.979,6.665-4.335C6.376,396.179,8.316,399.164,7.673,402.201z"/>
					</g>
					<g>
						
							<rect x="5.431" y="408.344" transform="matrix(0.2072 -0.9783 0.9783 0.2072 -401.6754 337.0388)" style="fill:#FFFFFF;" width="3.373" height="16.024"/>
						<path style="fill:#FFFFFF;" d="M4.78,415.86c-0.643,3.038-3.628,4.979-6.665,4.335c-3.038-0.643-4.979-3.628-4.335-6.666
							c0.643-3.038,3.628-4.979,6.665-4.335C3.483,409.837,5.423,412.822,4.78,415.86z"/>
					</g>
					<g>
						
							<rect x="2.538" y="422.002" transform="matrix(0.2072 -0.9783 0.9783 0.2072 -417.331 345.0366)" style="fill:#FFFFFF;" width="3.373" height="16.024"/>
						<path style="fill:#FFFFFF;" d="M1.887,429.518c-0.643,3.038-3.628,4.979-6.666,4.335c-3.038-0.643-4.979-3.628-4.335-6.666
							c0.643-3.038,3.628-4.979,6.666-4.335C0.589,423.496,2.53,426.48,1.887,429.518z"/>
					</g>
					<g>
						
							<rect x="-0.355" y="435.658" transform="matrix(0.2072 -0.9783 0.9783 0.2072 -432.9829 353.0321)" style="fill:#FFFFFF;" width="3.374" height="16.024"/>
						<path style="fill:#FFFFFF;" d="M-1.006,443.176c-0.643,3.038-3.628,4.979-6.666,4.335c-3.038-0.643-4.979-3.627-4.335-6.665
							c0.643-3.038,3.628-4.979,6.666-4.335C-2.304,437.154-0.363,440.138-1.006,443.176z"/>
					</g>
					<g>
						
							<rect x="-3.248" y="449.316" transform="matrix(0.2072 -0.9783 0.9783 0.2072 -448.6395 361.0341)" style="fill:#FFFFFF;" width="3.374" height="16.024"/>
						<path style="fill:#FFFFFF;" d="M-3.899,456.834c-0.644,3.038-3.628,4.979-6.665,4.335c-3.038-0.644-4.979-3.627-4.335-6.665
							c0.644-3.038,3.628-4.979,6.665-4.335C-5.196,450.812-3.256,453.796-3.899,456.834z"/>
					</g>
				</g>
			</g>
			<g>
				<path style="fill:#7F8CC7;" d="M224.992,423.188l24.355,14.286c2.355,1.381,3.144,4.41,1.763,6.764L188.004,551.82
					c-1.381,2.355-4.41,3.144-6.764,1.762l-24.355-14.286c-2.355-1.381-3.144-4.41-1.763-6.764l63.106-107.581
					C219.609,422.596,222.637,421.807,224.992,423.188z"/>
				<g>
					<path style="fill:#4E4E4E;" d="M217.667,453.165c-0.653,1.114-2.086,1.487-3.2,0.834c-1.114-0.653-1.487-2.086-0.834-3.2
						c0.653-1.114,2.086-1.487,3.2-0.834C217.947,450.619,218.32,452.051,217.667,453.165z"/>
					<path style="fill:#F5F5F5;" d="M214.15,459.16c-0.653,1.114-2.086,1.487-3.2,0.834c-1.114-0.654-1.487-2.086-0.834-3.2
						c0.653-1.114,2.086-1.487,3.2-0.834C214.43,456.614,214.803,458.047,214.15,459.16z"/>
					<path style="fill:#F5F5F5;" d="M210.633,465.156c-0.654,1.114-2.086,1.487-3.2,0.834c-1.114-0.653-1.487-2.086-0.834-3.2
						c0.653-1.114,2.086-1.487,3.2-0.834C210.913,462.609,211.287,464.042,210.633,465.156z"/>
					<path style="fill:#F5F5F5;" d="M207.117,471.151c-0.653,1.114-2.086,1.487-3.2,0.834c-1.114-0.654-1.487-2.086-0.834-3.2
						c0.653-1.114,2.086-1.487,3.2-0.834C207.397,468.604,207.77,470.037,207.117,471.151z"/>
					<path style="fill:#F5F5F5;" d="M203.6,477.146c-0.654,1.114-2.086,1.487-3.2,0.834c-1.114-0.653-1.487-2.086-0.834-3.2
						c0.654-1.114,2.086-1.487,3.2-0.834C203.88,474.599,204.253,476.032,203.6,477.146z"/>
					<path style="fill:#F5F5F5;" d="M200.083,483.141c-0.653,1.114-2.086,1.487-3.2,0.834c-1.114-0.653-1.487-2.086-0.834-3.2
						c0.653-1.114,2.086-1.487,3.2-0.834C200.363,480.595,200.736,482.027,200.083,483.141z"/>
					<path style="fill:#F5F5F5;" d="M196.567,489.136c-0.653,1.114-2.086,1.487-3.2,0.834c-1.114-0.653-1.487-2.086-0.834-3.2
						c0.654-1.114,2.086-1.487,3.2-0.834C196.847,486.59,197.22,488.022,196.567,489.136z"/>
					<path style="fill:#F5F5F5;" d="M221.484,459.434c-0.653,1.114-2.086,1.487-3.2,0.834c-1.114-0.653-1.487-2.086-0.834-3.2
						c0.653-1.114,2.086-1.487,3.2-0.834C221.764,456.887,222.138,458.32,221.484,459.434z"/>
					<path style="fill:#F5F5F5;" d="M217.968,465.429c-0.653,1.114-2.086,1.487-3.2,0.834c-1.114-0.654-1.487-2.086-0.834-3.2
						c0.654-1.114,2.086-1.487,3.2-0.834C218.248,462.882,218.621,464.315,217.968,465.429z"/>
					<path style="fill:#F5F5F5;" d="M214.451,471.424c-0.653,1.114-2.086,1.487-3.2,0.834c-1.114-0.653-1.487-2.086-0.834-3.2
						c0.653-1.114,2.086-1.487,3.2-0.834C214.731,468.878,215.104,470.31,214.451,471.424z"/>
					<path style="fill:#4E4E4E;" d="M210.934,477.419c-0.653,1.114-2.086,1.487-3.2,0.834c-1.114-0.654-1.487-2.086-0.834-3.2
						c0.653-1.114,2.086-1.487,3.2-0.834C211.214,474.873,211.588,476.305,210.934,477.419z"/>
					<path style="fill:#F5F5F5;" d="M207.417,483.414c-0.653,1.114-2.086,1.487-3.2,0.834c-1.114-0.653-1.487-2.086-0.834-3.2
						c0.653-1.114,2.086-1.487,3.2-0.834C207.697,480.868,208.071,482.3,207.417,483.414z"/>
					<path style="fill:#F5F5F5;" d="M203.901,489.409c-0.653,1.114-2.086,1.487-3.2,0.834c-1.114-0.653-1.487-2.086-0.834-3.2
						c0.653-1.114,2.086-1.487,3.2-0.834C204.181,486.863,204.554,488.296,203.901,489.409z"/>
				</g>
				<g>
					<path style="fill:#F5F5F5;" d="M172.655,529.694c0.68-1.098,2.121-1.437,3.219-0.756c1.098,0.68,1.436,2.121,0.756,3.219
						c-0.68,1.098-2.121,1.436-3.219,0.756C172.313,532.233,171.974,530.792,172.655,529.694z"/>
					<path style="fill:#F5F5F5;" d="M176.315,523.785c0.68-1.098,2.121-1.436,3.219-0.756c1.098,0.68,1.436,2.121,0.756,3.219
						c-0.68,1.098-2.121,1.436-3.219,0.756C175.973,526.324,175.635,524.883,176.315,523.785z"/>
					<path style="fill:#4E4E4E;" d="M179.975,517.877c0.68-1.098,2.121-1.436,3.219-0.756c1.098,0.68,1.436,2.121,0.756,3.219
						c-0.68,1.098-2.121,1.436-3.219,0.756C179.634,520.416,179.295,518.975,179.975,517.877z"/>
					<path style="fill:#F5F5F5;" d="M183.636,511.968c0.68-1.098,2.121-1.436,3.219-0.756c1.098,0.68,1.436,2.121,0.756,3.219
						c-0.68,1.098-2.121,1.436-3.219,0.756C183.295,514.508,182.956,513.066,183.636,511.968z"/>
					<path style="fill:#F5F5F5;" d="M187.297,506.06c0.68-1.098,2.121-1.436,3.219-0.756c1.098,0.68,1.436,2.121,0.756,3.219
						c-0.68,1.098-2.121,1.436-3.219,0.756C186.955,508.599,186.617,507.158,187.297,506.06z"/>
					<path style="fill:#F5F5F5;" d="M190.957,500.152c0.68-1.098,2.121-1.436,3.219-0.756c1.098,0.68,1.436,2.121,0.756,3.219
						c-0.68,1.098-2.121,1.436-3.219,0.756C190.615,502.691,190.277,501.249,190.957,500.152z"/>
					<path style="fill:#F5F5F5;" d="M194.618,494.243c0.68-1.098,2.121-1.436,3.219-0.756c1.098,0.68,1.436,2.121,0.756,3.219
						c-0.68,1.098-2.121,1.436-3.219,0.756C194.276,496.782,193.938,495.341,194.618,494.243z"/>
					<path style="fill:#F5F5F5;" d="M168.99,523.335c0.68-1.098,2.121-1.436,3.219-0.756c1.098,0.68,1.436,2.121,0.756,3.219
						c-0.68,1.098-2.121,1.436-3.219,0.756C168.648,525.874,168.309,524.433,168.99,523.335z"/>
					<path style="fill:#F5F5F5;" d="M172.65,517.427c0.68-1.098,2.121-1.436,3.219-0.756c1.098,0.68,1.436,2.121,0.756,3.219
						c-0.68,1.098-2.121,1.436-3.219,0.756C172.309,519.966,171.97,518.524,172.65,517.427z"/>
					<path style="fill:#F5F5F5;" d="M176.311,511.518c0.68-1.098,2.121-1.436,3.219-0.756c1.098,0.68,1.436,2.121,0.756,3.219
						c-0.68,1.098-2.121,1.436-3.219,0.756C175.969,514.057,175.63,512.616,176.311,511.518z"/>
					<path style="fill:#F5F5F5;" d="M179.971,505.61c0.68-1.098,2.121-1.436,3.219-0.756c1.098,0.68,1.436,2.121,0.756,3.219
						c-0.68,1.098-2.121,1.436-3.219,0.756C179.63,508.149,179.291,506.707,179.971,505.61z"/>
					<path style="fill:#F5F5F5;" d="M183.632,499.701c0.68-1.098,2.121-1.436,3.219-0.756c1.098,0.68,1.436,2.121,0.756,3.219
						c-0.68,1.098-2.121,1.436-3.219,0.756C183.29,502.24,182.952,500.799,183.632,499.701z"/>
					<path style="fill:#4E4E4E;" d="M187.292,493.793c0.68-1.098,2.121-1.436,3.219-0.756c1.098,0.68,1.436,2.121,0.756,3.219
						c-0.68,1.098-2.121,1.436-3.219,0.756C186.951,496.332,186.612,494.891,187.292,493.793z"/>
				</g>
				<g>
					<path style="fill:#F5F5F5;" d="M233.148,455.746c-0.653,1.114-2.086,1.487-3.2,0.834c-1.114-0.653-1.487-2.086-0.834-3.2
						c0.653-1.114,2.086-1.487,3.2-0.834C233.429,453.2,233.802,454.633,233.148,455.746z"/>
					<path style="fill:#F5F5F5;" d="M229.632,461.742c-0.653,1.114-2.086,1.487-3.2,0.834c-1.114-0.654-1.487-2.086-0.834-3.2
						c0.653-1.114,2.086-1.487,3.2-0.834C229.912,459.195,230.285,460.628,229.632,461.742z"/>
					<path style="fill:#F5F5F5;" d="M226.115,467.737c-0.654,1.114-2.086,1.487-3.2,0.834c-1.114-0.653-1.487-2.086-0.834-3.2
						c0.653-1.114,2.086-1.487,3.2-0.834C226.395,465.19,226.769,466.623,226.115,467.737z"/>
					<path style="fill:#F5F5F5;" d="M222.599,473.732c-0.653,1.114-2.086,1.487-3.2,0.834c-1.114-0.654-1.487-2.086-0.834-3.2
						c0.653-1.114,2.086-1.487,3.2-0.834C222.879,471.185,223.252,472.618,222.599,473.732z"/>
					<path style="fill:#F5F5F5;" d="M219.082,479.727c-0.654,1.114-2.086,1.487-3.2,0.834c-1.114-0.653-1.487-2.086-0.834-3.2
						c0.653-1.114,2.086-1.487,3.2-0.834C219.362,477.181,219.735,478.613,219.082,479.727z"/>
					<path style="fill:#4E4E4E;" d="M215.565,485.722c-0.653,1.114-2.086,1.487-3.2,0.834c-1.114-0.653-1.487-2.086-0.834-3.2
						c0.654-1.114,2.086-1.487,3.2-0.834C215.845,483.176,216.218,484.608,215.565,485.722z"/>
					<path style="fill:#F5F5F5;" d="M212.048,491.717c-0.653,1.114-2.086,1.487-3.2,0.834c-1.114-0.653-1.487-2.086-0.834-3.2
						c0.654-1.114,2.086-1.487,3.2-0.834C212.329,489.171,212.702,490.603,212.048,491.717z"/>
					<path style="fill:#F5F5F5;" d="M236.966,462.015c-0.653,1.114-2.086,1.487-3.2,0.834c-1.114-0.653-1.487-2.086-0.834-3.2
						c0.653-1.114,2.086-1.487,3.2-0.834C237.246,459.468,237.619,460.901,236.966,462.015z"/>
					<path style="fill:#F5F5F5;" d="M233.449,468.01c-0.653,1.114-2.086,1.487-3.2,0.834c-1.114-0.654-1.487-2.086-0.834-3.2
						c0.654-1.114,2.086-1.487,3.2-0.834C233.73,465.463,234.103,466.896,233.449,468.01z"/>
					<path style="fill:#F5F5F5;" d="M229.933,474.005c-0.653,1.114-2.086,1.487-3.2,0.834c-1.114-0.653-1.487-2.086-0.834-3.2
						c0.653-1.114,2.086-1.487,3.2-0.834C230.213,471.459,230.586,472.891,229.933,474.005z"/>
					<path style="fill:#F5F5F5;" d="M226.416,480c-0.653,1.114-2.086,1.487-3.2,0.834c-1.114-0.654-1.487-2.086-0.834-3.2
						c0.653-1.114,2.086-1.487,3.2-0.834C226.696,477.454,227.069,478.887,226.416,480z"/>
					<path style="fill:#F5F5F5;" d="M222.899,485.995c-0.653,1.114-2.086,1.487-3.2,0.834c-1.114-0.653-1.487-2.086-0.834-3.2
						c0.653-1.114,2.086-1.487,3.2-0.834C223.179,483.449,223.553,484.882,222.899,485.995z"/>
					<path style="fill:#F5F5F5;" d="M219.383,491.991c-0.654,1.114-2.086,1.487-3.2,0.834c-1.114-0.654-1.487-2.086-0.834-3.2
						c0.653-1.114,2.086-1.487,3.2-0.834C219.663,489.444,220.036,490.877,219.383,491.991z"/>
				</g>
				<g>
					<path style="fill:#F5F5F5;" d="M188.137,532.275c0.68-1.098,2.121-1.436,3.219-0.756c1.098,0.68,1.436,2.121,0.756,3.219
						c-0.68,1.098-2.121,1.436-3.219,0.756C187.795,534.814,187.456,533.373,188.137,532.275z"/>
					<path style="fill:#F5F5F5;" d="M191.797,526.367c0.68-1.098,2.121-1.436,3.219-0.756c1.098,0.68,1.436,2.121,0.756,3.219
						c-0.68,1.098-2.121,1.436-3.219,0.756C191.455,528.906,191.117,527.464,191.797,526.367z"/>
					<path style="fill:#F5F5F5;" d="M195.457,520.458c0.68-1.098,2.121-1.436,3.219-0.756c1.098,0.68,1.436,2.121,0.756,3.219
						c-0.68,1.098-2.121,1.436-3.219,0.756C195.116,522.997,194.777,521.556,195.457,520.458z"/>
					<path style="fill:#4E4E4E;" d="M199.118,514.55c0.68-1.098,2.121-1.436,3.219-0.756c1.098,0.68,1.436,2.121,0.756,3.219
						c-0.68,1.098-2.121,1.436-3.219,0.756C198.777,517.089,198.438,515.647,199.118,514.55z"/>
					<path style="fill:#F5F5F5;" d="M202.779,508.641c0.68-1.098,2.121-1.436,3.219-0.756c1.098,0.68,1.436,2.121,0.756,3.219
						c-0.68,1.098-2.121,1.436-3.219,0.756C202.437,511.18,202.098,509.739,202.779,508.641z"/>
					<path style="fill:#F5F5F5;" d="M206.439,502.733c0.68-1.098,2.121-1.436,3.219-0.756c1.098,0.68,1.436,2.121,0.756,3.219
						c-0.68,1.098-2.121,1.436-3.219,0.756C206.097,505.272,205.759,503.831,206.439,502.733z"/>
					<path style="fill:#F5F5F5;" d="M210.1,496.824c0.68-1.098,2.121-1.436,3.219-0.756c1.098,0.68,1.436,2.121,0.756,3.219
						c-0.68,1.097-2.121,1.436-3.219,0.756C209.758,499.363,209.42,497.922,210.1,496.824z"/>
					<path style="fill:#F5F5F5;" d="M184.471,525.916c0.68-1.098,2.121-1.436,3.219-0.756c1.098,0.68,1.436,2.121,0.756,3.219
						c-0.68,1.098-2.121,1.436-3.219,0.756C184.13,528.455,183.791,527.014,184.471,525.916z"/>
					<path style="fill:#F5F5F5;" d="M188.132,520.008c0.68-1.098,2.121-1.436,3.219-0.756c1.098,0.68,1.436,2.121,0.756,3.219
						c-0.68,1.098-2.121,1.436-3.219,0.756C187.79,522.547,187.452,521.106,188.132,520.008z"/>
					<path style="fill:#F5F5F5;" d="M191.793,514.099c0.68-1.098,2.121-1.436,3.219-0.756c1.098,0.68,1.436,2.121,0.756,3.219
						c-0.68,1.098-2.121,1.436-3.219,0.756C191.451,516.638,191.112,515.197,191.793,514.099z"/>
					<path style="fill:#F5F5F5;" d="M195.453,508.191c0.68-1.098,2.121-1.436,3.219-0.757c1.098,0.68,1.436,2.121,0.756,3.219
						c-0.68,1.098-2.121,1.436-3.219,0.756C195.111,510.73,194.773,509.289,195.453,508.191z"/>
					<path style="fill:#F5F5F5;" d="M199.114,502.283c0.68-1.098,2.121-1.436,3.219-0.756c1.098,0.68,1.436,2.121,0.756,3.219
						c-0.68,1.098-2.121,1.436-3.219,0.756C198.772,504.821,198.433,503.38,199.114,502.283z"/>
					<path style="fill:#F5F5F5;" d="M202.774,496.374c0.68-1.098,2.121-1.436,3.219-0.756c1.098,0.68,1.436,2.121,0.756,3.219
						c-0.68,1.098-2.121,1.436-3.219,0.756C202.433,498.913,202.094,497.472,202.774,496.374z"/>
				</g>
			</g>
		</g>
	</g>
</g>
<g id="TEXTS">
	<rect x="283.073" y="237.144" style="fill:none;" width="473.855" height="68.12"/>
	
		<text transform="matrix(1 0 0 1 299.3997 254.1634)" style="fill:#3E3E3D; font-family:'Poppins-Medium'; font-size:23px; letter-spacing:-1;">Lorem ipsum dolor sit amet, consectetuer </text>
	<text transform="matrix(1 0 0 1 321.3127 134.4975)" style="fill:#FFFFFF; font-family:'Bitter-Bold'; font-size:60.5305px;">Music school</text>
	<text transform="matrix(1 0 0 1 255.8161 218.2084)" style="fill:#DA6767; font-family:'Bitter-Bold'; font-size:39.8775px;">discount for new students</text>
	
		<text transform="matrix(1 0 0 1 422.2414 362.1814)" style="fill:#FFFFFF; font-family:'Bitter-Bold'; font-size:26.0071px; letter-spacing:1;">get your code</text>
</g>
</svg>
